<?xml version="1.0" encoding="UTF-8"?>
<svg xmlns="http://www.w3.org/2000/svg" xmlns:xlink="http://www.w3.org/1999/xlink" viewBox="0 0 514.36 863.02">
  <defs>
    <style>
      .cls-1 {
        clip-path: url(#clippath);
      }

      .cls-2, .cls-3, .cls-4, .cls-5, .cls-6, .cls-7, .cls-8, .cls-9, .cls-10, .cls-11 {
        stroke-width: 0px;
      }

      .cls-2, .cls-12 {
        fill: none;
      }

      .cls-3 {
        fill: url(#linear-gradient);
      }

      .cls-13 {
        mix-blend-mode: multiply;
      }

      .cls-14 {
        clip-path: url(#clippath-1);
      }

      .cls-15 {
        clip-path: url(#clippath-4);
      }

      .cls-16 {
        clip-path: url(#clippath-3);
      }

      .cls-17 {
        clip-path: url(#clippath-2);
      }

      .cls-18 {
        clip-path: url(#clippath-7);
      }

      .cls-19 {
        clip-path: url(#clippath-8);
      }

      .cls-20 {
        clip-path: url(#clippath-6);
      }

      .cls-21 {
        clip-path: url(#clippath-5);
      }

      .cls-22 {
        clip-path: url(#clippath-9);
      }

      .cls-12 {
        stroke: #191919;
        stroke-width: .5px;
      }

      .cls-23 {
        clip-path: url(#clippath-14);
      }

      .cls-24 {
        clip-path: url(#clippath-13);
      }

      .cls-25 {
        clip-path: url(#clippath-12);
      }

      .cls-26 {
        clip-path: url(#clippath-10);
      }

      .cls-27 {
        clip-path: url(#clippath-15);
      }

      .cls-28 {
        clip-path: url(#clippath-16);
      }

      .cls-29 {
        clip-path: url(#clippath-11);
      }

      .cls-4 {
        fill: url(#linear-gradient-2);
      }

      .cls-5 {
        fill: url(#linear-gradient-3);
      }

      .cls-30 {
        isolation: isolate;
      }

      .cls-6 {
        fill: #472cab;
      }

      .cls-7 {
        fill: #191919;
      }

      .cls-8 {
        fill: #e66e17;
      }

      .cls-9 {
        fill: #fafafa;
      }

      .cls-10 {
        fill: #ef0022;
      }

      .cls-11 {
        fill: #044da0;
      }
    </style>
    <clipPath id="clippath">
      <rect class="cls-2" x="10.21" y="9.51" width="479.05" height="841.89"/>
    </clipPath>
    <clipPath id="clippath-1">
      <rect class="cls-2" x="10.21" y="9.51" width="479.05" height="841.89"/>
    </clipPath>
    <clipPath id="clippath-2">
      <rect class="cls-2" width="514.36" height="863.02"/>
    </clipPath>
    <clipPath id="clippath-3">
      <rect class="cls-2" x="10.21" y="9.51" width="479.05" height="841.89"/>
    </clipPath>
    <clipPath id="clippath-4">
      <rect class="cls-2" x="248.49" y="225.37" width="2.5" height="410.96"/>
    </clipPath>
    <clipPath id="clippath-5">
      <rect class="cls-2" x="10.21" y="9.51" width="479.05" height="841.89"/>
    </clipPath>
    <clipPath id="clippath-6">
      <path class="cls-2" d="m396.22,783.51h6.9v-14.36h-6.9v14.36Zm-191.35-9.58c0,2.15,1.35,3.59,3.98,4.17l.55.14c1.08.25,1.46.42,1.46.83,0,.47-.47.64-1.1.64-.91,0-1.99-.33-3.15-1.02l-.47-.28-1.79,3.98.55.28c1.66.83,3.56,1.3,5.99,1.3,4.17,0,6.63-2.51,6.63-5,0-2.18-1.41-3.76-4.53-4.58l-.55-.14c-.69-.17-.97-.28-.97-.66s.47-.58,1.05-.58c.77,0,1.6.25,2.49.72l.41.22,1.82-3.78-.44-.22c-1.63-.8-3.48-1.19-5.36-1.19-4.14,0-6.57,2.65-6.57,5.19m177.62,0c0,2.15,1.35,3.59,3.98,4.17l.55.14c1.08.25,1.46.42,1.46.83,0,.47-.47.64-1.1.64-.91,0-1.99-.33-3.15-1.02l-.47-.28-1.79,3.98.55.28c1.66.83,3.56,1.3,5.99,1.3,4.17,0,6.63-2.51,6.63-5,0-2.18-1.41-3.76-4.53-4.58l-.55-.14c-.69-.17-.97-.28-.97-.66s.47-.58,1.05-.58c.77,0,1.6.25,2.48.72l.41.22,1.82-3.78-.44-.22c-1.63-.8-3.48-1.19-5.36-1.19-4.14,0-6.57,2.65-6.57,5.19m-280.46-.94c.94,0,1.66.69,1.66,1.74h-3.31c0-1.02.72-1.74,1.66-1.74m-8.26,3.34c0,4.61,3.51,7.62,8.23,7.62,4.09,0,7.24-1.96,8.06-5.14l-6.21-.53c-.17.83-.91,1.38-1.85,1.38s-1.63-.72-1.63-1.8v-.19h9.8c.06-.44.11-.88.11-1.35,0-4.61-3.51-7.62-8.26-7.62s-8.26,3.01-8.26,7.62m17.12,0c0,4.61,3.29,7.62,7.73,7.62,1.3,0,2.49-.25,3.53-.75v-5.39c-.5.41-1.16.66-1.93.66-1.49,0-2.43-.91-2.43-2.15s.94-2.15,2.43-2.15c.77,0,1.44.25,1.93.66v-5.39c-1.05-.47-2.26-.75-3.53-.75-4.45,0-7.73,3.01-7.73,7.62m46.28-5.85c-1.02-1.13-2.49-1.77-4.12-1.77-1.77,0-3.26.58-4.25,1.63v-1.19h-6.35v14.36h6.9v-7.65c0-.99.5-1.38,1.19-1.38s1.19.39,1.19,1.38v7.65h6.9v-7.65c0-.99.5-1.38,1.19-1.38s1.19.39,1.19,1.38v7.65h6.9v-8.4c0-2.15-.66-3.7-1.74-4.75-1.08-1.05-2.49-1.66-4.11-1.66-2.02,0-3.7.64-4.89,1.77m18.61,5.85c0-1.35.69-2.15,1.77-2.15s1.77.8,1.77,2.15-.69,2.15-1.77,2.15-1.77-.8-1.77-2.15m-6.9,0c0,4.61,2.79,7.62,6.6,7.62,1.57,0,2.98-.55,4.03-1.57v1.13h6.35v-14.36h-6.35v1.13c-1.05-1.02-2.46-1.57-4.03-1.57-3.81,0-6.6,3.01-6.6,7.62m24.88-5.99v-1.19h-6.35v14.36h6.9v-7.65c0-.99.5-1.38,1.19-1.38s1.19.39,1.19,1.38v7.65h6.9v-8.4c0-2.35-.64-3.81-1.66-4.83-.99-.99-2.4-1.57-3.92-1.57-1.77,0-3.23.58-4.25,1.63m24.25,5.99c0,4.61,3.29,7.62,7.73,7.62,1.3,0,2.49-.25,3.54-.75v-5.39c-.5.41-1.16.66-1.93.66-1.49,0-2.43-.91-2.43-2.15s.94-2.15,2.43-2.15c.77,0,1.43.25,1.93.66v-5.39c-1.05-.47-2.26-.75-3.54-.75-4.45,0-7.73,3.01-7.73,7.62m18.89,0c0-1.35.69-2.15,1.77-2.15s1.77.8,1.77,2.15-.69,2.15-1.77,2.15-1.77-.8-1.77-2.15m-6.9,0c0,4.61,3.67,7.62,8.67,7.62s8.67-3.01,8.67-7.62-3.67-7.62-8.67-7.62-8.67,3.01-8.67,7.62m43.11-3.34c.94,0,1.66.69,1.66,1.74h-3.31c0-1.02.72-1.74,1.66-1.74m-8.26,3.34c0,4.61,3.51,7.62,8.23,7.62,4.09,0,7.24-1.96,8.06-5.14l-6.21-.53c-.17.83-.91,1.38-1.85,1.38s-1.63-.72-1.63-1.8v-.19h9.8c.06-.44.11-.88.11-1.35,0-4.61-3.51-7.62-8.26-7.62s-8.26,3.01-8.26,7.62m24.08-.28c0-1.35.69-2.15,1.77-2.15s1.77.8,1.77,2.15-.69,2.15-1.77,2.15-1.77-.8-1.77-2.15m-6.9,0c0,4.45,2.73,7.35,6.46,7.35,1.6,0,2.98-.58,4.03-1.6v1.49c0,1.33-.47,2.21-1.9,2.21-.97,0-1.71-.55-1.88-1.35h-6.38c.06,3.78,3.26,6.24,8.26,6.24s8.26-2.1,8.26-6.88v-14.36h-6.35v1.16c-1.05-1.02-2.43-1.6-4.03-1.6-3.73,0-6.46,2.9-6.46,7.35m26.12-3.07c.94,0,1.66.69,1.66,1.74h-3.31c0-1.02.72-1.74,1.66-1.74m-8.26,3.34c0,4.61,3.51,7.62,8.23,7.62,4.09,0,7.24-1.96,8.06-5.14l-6.21-.53c-.17.83-.91,1.38-1.85,1.38s-1.63-.72-1.63-1.8v-.19h9.8c.05-.44.11-.88.11-1.35,0-4.61-3.51-7.62-8.26-7.62s-8.26,3.01-8.26,7.62m24.02,0c0-1.35.69-2.15,1.77-2.15s1.77.8,1.77,2.15-.69,2.15-1.77,2.15-1.77-.8-1.77-2.15m-6.9,0c0,4.61,3.67,7.62,8.67,7.62s8.67-3.01,8.67-7.62-3.67-7.62-8.67-7.62-8.67,3.01-8.67,7.62m56.42-3.34c.94,0,1.66.69,1.66,1.74h-3.31c0-1.02.72-1.74,1.66-1.74m-8.26,3.34c0,4.61,3.51,7.62,8.23,7.62,4.09,0,7.23-1.96,8.06-5.14l-6.21-.53c-.16.83-.91,1.38-1.85,1.38s-1.63-.72-1.63-1.8v-.19h9.8c.06-.44.11-.88.11-1.35,0-4.61-3.51-7.62-8.26-7.62s-8.26,3.01-8.26,7.62m45.98-.28c0-1.35.69-2.15,1.77-2.15s1.77.8,1.77,2.15-.69,2.15-1.77,2.15-1.77-.8-1.77-2.15m-6.9,0c0,4.45,2.73,7.35,6.46,7.35,1.6,0,2.98-.58,4.03-1.6v1.49c0,1.33-.47,2.21-1.91,2.21-.97,0-1.71-.55-1.88-1.35h-6.38c.05,3.78,3.26,6.24,8.26,6.24s8.26-2.1,8.26-6.88v-14.36h-6.35v1.16c-1.05-1.02-2.43-1.6-4.03-1.6-3.73,0-6.46,2.9-6.46,7.35m24.69-5.72v-1.19h-6.35v14.36h6.9v-7.65c0-.99.5-1.38,1.19-1.38s1.19.39,1.19,1.38v7.65h6.9v-8.4c0-2.35-.63-3.81-1.66-4.83-.99-.99-2.4-1.57-3.92-1.57-1.77,0-3.23.58-4.25,1.63m-372.86,4.24c0-2.21,1.71-3.95,3.87-3.95s3.86,1.74,3.86,3.95-1.71,3.95-3.86,3.95-3.87-1.71-3.87-3.95m-7.7.03c0,6.71,5.44,12.15,12.15,12.15,2.6,0,5.03-.83,7.01-2.24l-.83-1.27c-1.79,1.3-3.95,1.99-6.19,1.99-5.85,0-10.58-4.78-10.58-10.63s4.72-10.63,10.58-10.63c5.55,0,10.03,4.25,10.03,9.53,0,3.09-1.33,5.08-3.31,5.08-.55,0-1.02-.19-1.35-.53-.36-.36-.55-.88-.55-2.04v-6.63h-1.57v1.49c-.94-1.08-2.29-1.77-3.81-1.77-3.12,0-5.44,2.46-5.44,5.47s2.38,5.47,5.5,5.47c1.66,0,3.09-.77,4.06-1.99.5,1.22,1.68,2.04,3.18,2.04,3.15,0,4.89-2.96,4.89-6.6,0-6.1-5.19-11.05-11.6-11.05s-12.15,5.44-12.15,12.15m34.33,1.72c0-1.35.69-2.15,1.77-2.15s1.77.8,1.77,2.15-.69,2.15-1.77,2.15-1.77-.8-1.77-2.15m-6.54-14.31v21.49h6.35v-1.13c1.05,1.02,2.46,1.57,4.03,1.57,3.81,0,6.6-3.01,6.6-7.62s-2.79-7.62-6.6-7.62c-1.33,0-2.51.39-3.48,1.11v-7.79h-6.9Zm47.33,0v21.49h6.9v-5.8l3.87,5.8h7.9l-5.11-7.4,4.94-6.96h-7.65l-3.95,5.47v-12.59h-6.9Zm124.93,21.49h6.9v-21.49h-6.9v21.49Zm8.45,0h6.9v-21.49h-6.9v21.49Zm97.15-7.18c0-1.35.69-2.15,1.77-2.15s1.77.8,1.77,2.15-.69,2.15-1.77,2.15-1.77-.8-1.77-2.15m3.18-14.31v7.79c-.97-.72-2.15-1.11-3.48-1.11-3.81,0-6.6,3.01-6.6,7.62s2.79,7.62,6.6,7.62c1.57,0,2.98-.55,4.03-1.57v1.13h6.35v-21.49h-6.9Zm-18.59,1.21c-.94.97-1.52,2.38-1.52,4.58v1.33h-2.21v5.47h2.21v8.89h6.9v-8.89h2.6v-5.47h-2.6v-.22c0-.97.3-1.6,1.38-1.6.44,0,.86.06,1.22.17v-5.16c-1.16-.5-2.43-.75-3.81-.75-1.68,0-3.15.61-4.17,1.66m57.27.8c0,2.13,1.68,3.81,3.81,3.81s3.81-1.69,3.81-3.81-1.68-3.81-3.81-3.81-3.81,1.68-3.81,3.81"/>
    </clipPath>
    <linearGradient id="linear-gradient" x1="10.21" y1="851.43" x2="11.21" y2="851.43" gradientTransform="translate(-3938.6 333173.3) scale(390.4 -390.4)" gradientUnits="userSpaceOnUse">
      <stop offset="0" stop-color="#472cab"/>
      <stop offset=".33" stop-color="#ef0022"/>
      <stop offset=".67" stop-color="#e66e17"/>
      <stop offset="1" stop-color="#044da0"/>
    </linearGradient>
    <clipPath id="clippath-7">
      <path class="cls-2" d="m164.5,752.3c0-1.58,1.52-2.32,2.91-2.32s2.88.74,2.88,2.32-1.49,2.32-2.88,2.32-2.91-.77-2.91-2.32m-.71.06c0,1.43,1.74,3.19,2.67,4.19.87.93,1.74,1.36,3.04,1.36,1.71,0,3.63-1.18,3.63-3.07,0-.65-.28-1.08-.62-1.58-.59-.9-1.24-1.77-1.95-2.57-.9-1.02-1.83-1.46-3.19-1.46-1.89,0-3.56,1.12-3.56,3.13m168.28-.06c0-1.58,1.52-2.32,2.91-2.32s2.88.74,2.88,2.32-1.49,2.32-2.88,2.32-2.91-.77-2.91-2.32m-.71.06c0,1.43,1.74,3.19,2.67,4.19.87.93,1.74,1.36,3.04,1.36,1.7,0,3.63-1.18,3.63-3.07,0-.65-.28-1.08-.62-1.58-.59-.9-1.24-1.77-1.95-2.57-.9-1.02-1.83-1.46-3.19-1.46-1.89,0-3.57,1.12-3.57,3.13m-150.16-4h.81c.4,0,.84.06,1.18.28.06.19.12.37.12.59,0,.81-.62,1.18-1.36,1.18h-.74v-2.05Zm-2.48-1.46v4.34h2.48c1.52,0,2.88-.43,2.88-2.2s-1.4-2.14-2.88-2.14h-2.48Zm186.73,2.45c-.03-.22-.03-.43-.03-.65,0-1.77,1.24-3.72,3.16-3.72.4,0,.77.06,1.18.16-.03.96-.06,1.92-.53,2.76-.56.96-1.64,1.61-2.76,1.61-.34,0-.68-.09-1.02-.15m-2.91-3.25c0,2.2,1.64,4.12,3.91,4.12s4.03-2.05,4.03-4.31-1.58-4.18-3.94-4.18-4,2.05-4,4.37m-224.87-.28l.65,2.57h-1.36l.71-2.57Zm-3.04,3.19h4.59l-2.29-8.52-2.29,8.52Zm147.49-3.19l.65,2.57h-1.36l.71-2.57Zm-3.04,3.19h4.59l-2.29-8.52-2.29,8.52Zm-97.88-7.19h.53c.37,0,.62.09.93.31.03.18.09.34.09.53,0,1.02-.68,1.18-1.55,1.18v-2.01Zm-2.48-1.36v4.03h2.23c1.3,0,2.48-.56,2.48-2.01,0-1.3-1.02-2.01-2.23-2.01h-2.48Zm-140.24-2.79h10.73v3.56h-5.55v3.32h4.96v3.32h-4.96v6.32h-5.18v-16.52Zm-.71-.71v17.98l2.11,2.57h6.57v-6.32h4.96v-3.94l-2.54-3.16h3.13v-4.25l-2.36-2.88h-11.87Zm16.16.71h10.63v3.5h-5.98v2.98h5.49v3.35h-5.49v3.19h5.98v3.5h-10.63v-16.52Zm-.71-.71v17.98l2.14,2.57h12.06v-4l-2.67-3.41h2.11v-3.01l-2.79-3.44h3.35v-3.75l-2.39-2.95h-11.81Zm31.79.71h12.37v3.91h-3.6v12.62h-5.21v-12.62h-3.57v-3.91Zm-.71-.71v4.9l1.98,2.51h1.55v10.57l2.14,2.57h6.6v-13.14h3.41v-4.68l-2.23-2.73h-13.45Zm17.28.71h5.15v16.52h-5.15v-16.52Zm-.71-.71v17.98l2.08,2.57h6.57v-17.92l-2.17-2.64h-6.48Zm21.35.71h5.3l-6.29,16.52h-5.05l-6.23-16.52h5.27l3.5,10.79,3.5-10.79Zm-.46-.71l-2.48,7.5-1.52-4.96-2.11-2.54h-6.63l6.63,17.98s1.92,2.29,2.14,2.57h5.92l6.76-17.55-2.42-3.01h-6.29Zm11.76.71h6.79l5.46,16.52h-5.24l-.59-2.29h-5.98l-.68,2.29h-5.18l5.43-16.52Zm-.53-.71l-5.86,17.98,2.17,2.57h5.8l.68-2.57h4.74l1.92,2.57h6.29l-5.55-17.61-2.35-2.95h-7.84Zm16.2.71h5.15v12.18h5.67v4.34h-10.82v-16.52Zm-.71-.71v17.98l2.08,2.57h12.24v-5.74l-2.11-2.67h-3.57v-9.49l-2.14-2.67h-6.51Zm26.25.71h7.97c1.33,0,2.82.06,3.94.9.99.74,1.52,1.95,1.52,3.19,0,2.2-1.24,3.16-3.13,3.94,2.05.56,4,1.77,4,4.12,0,3.22-3.19,4.37-5.92,4.37h-8.37v-16.52Zm-.71-.71v17.98l2.11,2.57h8.77c1.58,0,3.1-.12,4.5-.93,1.55-.9,2.42-2.36,2.42-4.15,0-.96-.31-1.92-.93-2.67l-1.61-1.92c1.12-.84,1.74-1.92,1.74-3.32,0-2.14-1.46-3.94-2.82-5.43-1.49-1.64-3.04-2.14-5.21-2.14h-8.96Zm19.36.71h10.63v3.5h-5.98v2.98h5.49v3.35h-5.49v3.19h5.98v3.5h-10.63v-16.52Zm-.71-.71v17.98l2.14,2.57h12.06v-4l-2.67-3.41h2.11v-3.01l-2.79-3.44h3.35v-3.75l-2.39-2.95h-11.81Zm43.5.71h5.61l-5.27,8.12,5.89,8.4h-5.89l-5.43-8.09v8.09h-5.18v-16.52h5.18v8.12l5.08-8.12Zm24.47,0h6.29l2.23,16.52h-5.15l-1.08-12.09-4.03,12.09h-2.82l-3.78-12.09-1.3,12.09h-5.08l2.17-16.52h6.29l3.13,10.35,3.13-10.35Zm17.34,0h6.79l5.46,16.52h-5.24l-.59-2.29h-5.98l-.68,2.29h-5.18l5.42-16.52Zm-.53-.71l-5.82,17.85-1.98-15.25-2.14-2.6h-7.41l-1.95,6.45-1.12-3.84-2.14-2.6h-7.41l-2.45,17.97-5.74-8.3,4.9-7.62-1.67-2.05h-6.73l-2.17,3.6v-1.27l-1.89-2.33h-6.54v17.98l2.11,2.57h6.32v-6.26l2.57,3.69c.65.93,1.46,1.71,2.17,2.57h8.46l-1.73-2.5,2.08,2.5h6.35l.68-6.73,1.3,4.15,2.11,2.57h3.53l1.98-5.89.22,3.32,2.14,2.57h6.48l-.32-2.49,2.1,2.49h5.8l.68-2.57h4.74l1.92,2.57h6.29l-5.55-17.61-2.36-2.95h-7.84Zm28.07.71h4.84v16.52h-5.08l-6.82-10.29v10.29h-4.8v-16.52h5.12l6.76,10.23v-10.23Zm-.71-.71v6.94l-2.17-3.29c-.37-.56-.65-1.15-1.08-1.64-.19-.22-.56-.43-.81-.62l-1.8-1.4h-6.01v17.98l2.14,2.57h6.17v-8.09l2.39,3.53c.37.59.74,1.21,1.18,1.77.25.34.56.62.84.93l1.64,1.86h5.86v-17.67l-2.36-2.88h-5.98Zm75.27.71h5.15v12.18h5.67v4.34h-10.82v-16.52Zm-.71-.71v17.98l2.08,2.57h12.24v-5.74l-2.11-2.67h-3.57v-9.49l-2.14-2.67h-6.51Zm16.12.71h5.14v12.18h5.67v4.34h-10.82v-16.52Zm-.71-.71v17.98l2.08,2.57h12.25v-5.74l-2.11-2.67h-3.57v-9.49l-2.14-2.67h-6.51Zm16.12.71h10.63v3.5h-5.98v2.98h5.49v3.35h-5.49v3.19h5.98v3.5h-10.63v-16.52Zm-.71-.71v17.98l2.14,2.57h12.06v-4l-2.67-3.41h2.11v-3.01l-2.79-3.44h3.35v-3.75l-2.39-2.95h-11.81Zm38.07.71h10.63v3.5h-5.98v2.98h5.49v3.35h-5.49v3.19h5.98v3.5h-10.63v-16.52Zm-.71-.71v17.98l2.14,2.57h12.06v-4l-2.67-3.41h2.11v-3.01l-2.79-3.44h3.35v-3.75l-2.39-2.95h-11.81Zm-370.75,12.25c0-1.49-1.77-1.55-2.85-1.77-2.57-.5-4.62-1.55-4.62-4.5,0-3.66,3.38-5.74,6.73-5.74,1.89,0,3.84.47,5.52,1.36l-1.33,3.29c-1.08-.65-2.33-1.12-3.6-1.12-.99,0-2.08.5-2.08,1.64,0,1.3,1.3,1.49,2.29,1.71,1.18.25,2.64.59,3.63,1.3,1.09.81,1.67,2.14,1.67,3.47,0,3.91-3.69,5.74-7.16,5.74-2.32,0-4.12-.65-6.2-1.61l1.46-3.44c1.3.81,2.6,1.52,4.18,1.52,1.15,0,2.36-.56,2.36-1.86m-8.18-6.26c0,2.2,1.58,4.22,3.16,5.61,1.18,1.05,2.01,1.33,3.53,1.7-.28.15-.5.15-.81.15-1.71,0-3.22-.9-4.53-1.92l-1.98,4.62,2.2,2.91c2.26,1.18,4.4,1.86,6.98,1.86,3.84,0,7.66-2.26,7.66-6.48,0-1.43-.31-2.08-1.05-3.25-1.67-2.6-2.94-3.94-6.14-4.4.31-.31.62-.43,1.05-.43,1.3,0,2.48.87,3.47,1.64l1.95-4.22-1.95-2.67c-1.95-1.02-3.94-1.58-6.14-1.58-3.72,0-7.41,2.45-7.41,6.45m139.44,3.04c0-5.15,3.69-8.74,8.8-8.74,1.33,0,2.63.25,3.87.65v4.87c-.96-.59-1.83-.99-3.01-.99-2.39,0-4.37,1.83-4.37,4.25s2.01,4.18,4.43,4.18c1.21,0,1.92-.31,2.94-.9v4.87c-1.18.28-2.36.43-3.56.43-5.24,0-9.11-3.19-9.11-8.62m-.71.09c0,2.54.78,4.31,2.2,6.36.77,1.08,1.58,2.17,2.6,3.07,2.11,1.86,4.09,2.42,6.85,2.42,1.64,0,2.98-.25,4.53-.78v-6.6l-1.98-2.57c-1.12.9-2.36,1.55-3.84,1.55-.56,0-1.09-.15-1.58-.34-.03-.19-.03-.37-.03-.56,0-1.98,1.55-3.5,3.53-3.5,1.37,0,2.88.84,3.91,1.67v-6.91l-1.98-2.51c-1.49-.5-3.04-.87-4.62-.87-5.52,0-9.58,4.06-9.58,9.58m115.38,3.13c0-1.49-1.77-1.55-2.85-1.77-2.57-.5-4.62-1.55-4.62-4.5,0-3.66,3.38-5.74,6.73-5.74,1.89,0,3.84.47,5.52,1.36l-1.33,3.29c-1.09-.65-2.32-1.12-3.6-1.12-.99,0-2.08.5-2.08,1.64,0,1.3,1.3,1.49,2.29,1.71,1.18.25,2.63.59,3.63,1.3,1.08.81,1.67,2.14,1.67,3.47,0,3.91-3.69,5.74-7.16,5.74-2.33,0-4.12-.65-6.2-1.61l1.46-3.44c1.3.81,2.6,1.52,4.18,1.52,1.15,0,2.36-.56,2.36-1.86m-8.18-6.26c0,2.2,1.58,4.22,3.16,5.61,1.18,1.05,2.01,1.33,3.53,1.7-.28.15-.5.15-.8.15-1.71,0-3.23-.9-4.53-1.92l-1.99,4.62,2.2,2.91c2.26,1.18,4.4,1.86,6.98,1.86,3.84,0,7.66-2.26,7.66-6.48,0-1.43-.31-2.08-1.05-3.25-1.67-2.6-2.95-3.94-6.14-4.4.31-.31.62-.43,1.05-.43,1.3,0,2.48.87,3.47,1.64l1.95-4.22-1.95-2.67c-1.95-1.02-3.94-1.58-6.14-1.58-3.72,0-7.41,2.45-7.41,6.45m26.03,3.04c0-5.15,3.69-8.74,8.8-8.74,1.33,0,2.64.25,3.88.65v4.87c-.96-.59-1.83-.99-3.01-.99-2.39,0-4.37,1.83-4.37,4.25s2.01,4.18,4.43,4.18c1.21,0,1.92-.31,2.95-.9v4.87c-1.18.28-2.36.43-3.57.43-5.24,0-9.11-3.19-9.11-8.62m-.71.09c0,2.54.77,4.31,2.2,6.36.77,1.08,1.58,2.17,2.6,3.07,2.11,1.86,4.09,2.42,6.85,2.42,1.64,0,2.98-.25,4.53-.78v-6.6l-1.99-2.57c-1.12.9-2.36,1.55-3.84,1.55-.56,0-1.08-.15-1.58-.34-.03-.19-.03-.37-.03-.56,0-1.98,1.55-3.5,3.53-3.5,1.36,0,2.88.84,3.91,1.67v-6.91l-1.99-2.51c-1.49-.5-3.04-.87-4.62-.87-5.52,0-9.58,4.06-9.58,9.58m17.61-.25c0-5.18,4.03-8.62,9.05-8.62s9.11,3.47,9.11,8.8-3.81,8.56-8.93,8.56-9.24-3.35-9.24-8.74m-.71.22c0,2.97.99,4.74,2.85,6.94,1.18,1.43,2.48,2.98,4.15,3.81,1.52.74,3.26,1.08,4.96,1.08,5.39,0,9.8-3.78,9.8-9.33,0-1.39-.34-3.04-.96-4.31-.68-1.43-2.6-3.72-3.75-4.87-.84-.84-1.7-1.52-2.82-1.98-1.3-.56-3.07-.9-4.5-.9-5.61,0-9.73,3.88-9.73,9.55m77.05,4.06c-.59-.93-.81-1.67-.81-2.79,0-1.67.59-3.91,2.63-3.91.84,0,1.36.37,1.95.9h-2.91v4l1.8,1.74c-.46.22-.77.31-1.27.31-.46,0-.93-.12-1.39-.25m-8.21-4.25c0-5.8,4.03-8.65,9.52-8.65,3.32,0,5.49,1.02,7.66,3.5l-4.74,1.83c-.9-.9-2.05-1.4-3.32-1.4-2.7,0-4.56,2.11-4.56,4.74,0,2.91,1.98,5.18,4.96,5.18,2.14,0,3.47-.99,3.44-3.22h-3.13v-2.88h8.52c-.03,5.8-3.22,9.61-9.18,9.61-5.24,0-9.18-3.32-9.18-8.71m-.71.09c0,1.27.25,2.54.71,3.72.84,2.05,2.94,4.68,4.65,6.08,1.92,1.55,4.31,2.14,6.76,2.14,3.5,0,6.85-1.74,8.49-4.9,1.09-2.08,1.21-3.5,1.33-5.8l-2.33-2.94h-2.82l3.6-1.52c-1.83-2.45-3.26-4.37-6.2-5.52-1.33-.53-2.6-.71-4.03-.71-5.86,0-10.17,3.35-10.17,9.45"/>
    </clipPath>
    <linearGradient id="linear-gradient-2" x1="10.21" y1="851.42" x2="11.21" y2="851.42" gradientTransform="translate(-4291.85 361705.62) scale(423.95 -423.95)" gradientUnits="userSpaceOnUse">
      <stop offset="0" stop-color="#472cab"/>
      <stop offset=".33" stop-color="#ef0022"/>
      <stop offset=".67" stop-color="#e66e17"/>
      <stop offset="1" stop-color="#044da0"/>
    </linearGradient>
    <clipPath id="clippath-8">
      <path class="cls-2" d="m451.05,727.22c0,2.1,1.63,3.73,3.73,3.73s3.73-1.63,3.73-3.73-1.63-3.73-3.73-3.73-3.73,1.63-3.73,3.73m-157.8,3.29h6.9v-14.36h-6.9v14.36Zm100.82,0h6.9v-14.36h-6.9v14.36Zm-32.42-9.58c0,2.15,1.35,3.59,3.98,4.17l.55.14c1.08.25,1.46.42,1.46.83,0,.47-.47.64-1.11.64-.91,0-1.99-.33-3.15-1.02l-.47-.28-1.79,3.98.55.28c1.66.83,3.56,1.3,5.99,1.3,4.17,0,6.63-2.51,6.63-5,0-2.18-1.41-3.75-4.53-4.58l-.55-.14c-.69-.16-.97-.28-.97-.66s.47-.58,1.05-.58c.77,0,1.6.25,2.49.72l.41.22,1.82-3.78-.44-.22c-1.63-.8-3.48-1.19-5.36-1.19-4.14,0-6.57,2.65-6.57,5.19m-60.15,2.4c0,4.61,3.29,7.62,7.73,7.62,1.3,0,2.49-.25,3.53-.75v-5.39c-.5.41-1.16.66-1.93.66-1.49,0-2.43-.91-2.43-2.15s.94-2.15,2.43-2.15c.77,0,1.44.25,1.93.66v-5.38c-1.05-.47-2.26-.75-3.53-.75-4.45,0-7.73,3.01-7.73,7.62m38.44-3.34c.94,0,1.66.69,1.66,1.74h-3.31c0-1.02.72-1.74,1.66-1.74m-8.26,3.34c0,4.61,3.51,7.62,8.23,7.62,4.09,0,7.24-1.96,8.06-5.14l-6.21-.53c-.17.83-.91,1.38-1.85,1.38s-1.63-.72-1.63-1.8v-.19h9.8c.06-.44.11-.88.11-1.35,0-4.61-3.51-7.62-8.26-7.62s-8.26,3.01-8.26,7.62m77.46-5.99v-1.19h-6.35v14.36h6.9v-7.65c0-.99.5-1.38,1.19-1.38s1.19.39,1.19,1.38v7.65h6.9v-8.4c0-2.35-.63-3.81-1.66-4.83-.99-.99-2.4-1.57-3.92-1.57-1.77,0-3.23.58-4.25,1.63m30.32,5.99c0-1.35.69-2.15,1.77-2.15s1.77.8,1.77,2.15-.69,2.15-1.77,2.15-1.77-.8-1.77-2.15m-6.9,0c0,4.61,3.67,7.62,8.67,7.62s8.67-3.01,8.67-7.62-3.67-7.62-8.67-7.62-8.67,3.01-8.67,7.62m18.48-5.3c0,2.1,1.63,3.73,3.73,3.73s3.73-1.63,3.73-3.73-1.63-3.73-3.73-3.73-3.73,1.63-3.73,3.73m-168.48-6.79v4.92h-2.21v5.47h2.21v8.89h6.9v-8.89h2.32v-5.47h-2.32v-4.92h-6.9Zm68.65,0v4.92h-2.21v5.47h2.21v8.89h6.9v-8.89h2.32v-5.47h-2.32v-4.92h-6.9Zm26.65,3.01c0,1.66.83,3.12,2.13,4.01-2.29,1.05-3.87,3.31-3.87,5.97,0,3.67,2.98,6.63,6.77,6.63s6.76-2.95,6.76-6.63h3.09v-1.52h-7.79v1.52h3.09c0,2.87-2.27,5.11-5.16,5.11s-5.17-2.24-5.17-5.11,2.27-5.11,5.17-5.11v-1.52c-1.93,0-3.43-1.46-3.43-3.34s1.49-3.34,3.43-3.34,3.42,1.46,3.42,3.34h1.6c0-2.71-2.21-4.89-5.02-4.89s-5.03,2.18-5.03,4.89m-63.49-5.22v21.49h6.9v-5.8l3.87,5.8h7.9l-5.11-7.4,4.94-6.96h-7.65l-3.95,5.47v-12.59h-6.9Zm109.5,1.21c-.94.97-1.52,2.38-1.52,4.58v1.33h-2.21v5.47h2.21v8.89h6.9v-8.89h2.6v-5.47h-2.6v-.22c0-.97.3-1.6,1.38-1.6.44,0,.86.05,1.21.17v-5.16c-1.16-.5-2.43-.74-3.81-.74-1.68,0-3.15.61-4.17,1.66m-130.95.8c0,2.13,1.68,3.81,3.81,3.81s3.81-1.68,3.81-3.81-1.68-3.81-3.81-3.81-3.81,1.68-3.81,3.81m100.83,0c0,2.13,1.68,3.81,3.81,3.81s3.81-1.68,3.81-3.81-1.68-3.81-3.81-3.81-3.81,1.68-3.81,3.81"/>
    </clipPath>
    <linearGradient id="linear-gradient-3" x1="10.21" y1="851.46" x2="11.21" y2="851.46" gradientTransform="translate(-1539.01 152406.39) scale(178.15 -178.15)" gradientUnits="userSpaceOnUse">
      <stop offset="0" stop-color="#472cab"/>
      <stop offset=".33" stop-color="#ef0022"/>
      <stop offset=".67" stop-color="#e66e17"/>
      <stop offset="1" stop-color="#044da0"/>
    </linearGradient>
    <clipPath id="clippath-9">
      <rect class="cls-2" x="10.21" y="9.51" width="479.05" height="841.89"/>
    </clipPath>
    <clipPath id="clippath-10">
      <rect class="cls-2" x="10.21" y="9.51" width="479.05" height="841.89"/>
    </clipPath>
    <clipPath id="clippath-11">
      <rect class="cls-2" x="248.24" y="14.18" width="2.5" height="200.33"/>
    </clipPath>
    <clipPath id="clippath-12">
      <rect class="cls-2" x="14.88" y="218.51" width="230.19" height="2.5"/>
    </clipPath>
    <clipPath id="clippath-13">
      <rect class="cls-2" x="254.41" y="218.51" width="230.19" height="2.5"/>
    </clipPath>
    <clipPath id="clippath-14">
      <rect class="cls-2" x="248.49" y="646.23" width="2.5" height="200.33"/>
    </clipPath>
    <clipPath id="clippath-15">
      <rect class="cls-2" x="14.88" y="640.03" width="230.19" height="2.5"/>
    </clipPath>
    <clipPath id="clippath-16">
      <rect class="cls-2" x="254.41" y="640.03" width="230.19" height="2.5"/>
    </clipPath>
  </defs>
  <g class="cls-30">
    <g id="Layer_1" data-name="Layer 1">
      <g class="cls-1">
        <g class="cls-14">
          <g class="cls-13">
            <g class="cls-17">
              <rect class="cls-9" x="1" y="1" width="512.36" height="861.02"/>
            </g>
          </g>
        </g>
        <g class="cls-16">
          <g class="cls-13">
            <g class="cls-15">
              <line class="cls-12" x1="249.74" y1="635.33" x2="249.74" y2="226.37"/>
            </g>
          </g>
        </g>
        <g class="cls-21">
          <path class="cls-7" d="m304.59,617.68c0-3.69-2.43-6.35-5.85-7.26v1.33c2.37.6,4.56,2.66,4.56,5.93s-2.19,5.32-4.56,5.93v1.34c3.42-.92,5.85-3.57,5.85-7.26m-9.19-2.24c1.2,0,1.92.76,2.08,1.76h-4.38c.32-1.04,1.2-1.76,2.3-1.76m0,5.07c-1.24,0-2.31-.97-2.4-2.34h5.82c0-2.52-1.53-3.88-3.42-3.88s-3.6,1.66-3.6,3.71,1.62,3.71,3.6,3.71c1.38,0,2.58-.74,3.28-2.06l-1.02-.57c-.49.93-1.1,1.44-2.26,1.44m-12.14-.91c.6,1.37,1.96,2.1,3.61,2.1s3.08-.95,3.08-2.33c0-2.8-4.89-1.42-4.89-2.94,0-.65.63-1.08,1.56-1.08s1.62.36,1.95,1.11l1.17-.48c-.48-.99-1.41-1.69-3.02-1.69-1.69,0-2.86.97-2.86,2.22,0,2.74,4.85,1.17,4.85,2.91,0,.76-.81,1.21-1.79,1.21-1.08,0-2.1-.53-2.46-1.53l-1.2.49Zm-5.91-1.91c0,3.69,2.43,6.35,5.85,7.26v-1.34c-2.37-.6-4.56-2.65-4.56-5.93s2.19-5.32,4.56-5.93v-1.33c-3.42.91-5.85,3.57-5.85,7.26m-10.14-2.3c-.23-.66-.67-1.1-1.39-1.1-.6,0-1.21.32-1.5,1.1v-.92h-1.18v7.05h1.18v-4.54c0-.98.42-1.56,1.08-1.56.56,0,.89.42.89,1.18v4.92h1.18v-4.54c0-.98.42-1.56,1.08-1.56.56,0,.89.42.89,1.18v4.92h1.18v-5.38c0-1.21-.79-1.85-1.68-1.85-.71,0-1.35.43-1.73,1.1m-12.54,6.13h6.96v-1.11h-2.85v-10.98h-4.11v1.11h2.85v9.87h-2.85v1.11Zm-7.56-3.52c0-1.46,1.1-2.52,2.43-2.52s2.43,1.07,2.43,2.52-1.09,2.52-2.43,2.52-2.43-1.06-2.43-2.52m-1.23,0c0,2.04,1.65,3.71,3.66,3.71s3.66-1.67,3.66-3.71-1.65-3.71-3.66-3.71-3.66,1.66-3.66,3.71m-3.33-.87v4.4h1.26v-4.71c0-1.37-.87-2.52-2.49-2.52-1.05,0-1.83.51-2.31,1.27v-6.13h-1.26v12.09h1.26v-3.85c0-1.4.78-2.25,1.89-2.25,1.04,0,1.65.63,1.65,1.71m-13.63-7.69v12.09h1.26v-1.82l1.27-1.24,3.07,3.06h1.62l-3.87-3.87,3.27-3.18h-1.54l-3.82,3.83v-8.87h-1.26Zm-4.65,4.86c-2.21,0-3.91,1.66-3.91,3.71s1.71,3.71,3.91,3.71c.81,0,1.43-.23,2.02-.56v-1.5c-.46.51-1.18.85-2.05.85-1.51,0-2.65-1-2.65-2.5s1.14-2.51,2.65-2.51c.87,0,1.56.33,2.01.84v-1.5c-.58-.33-1.17-.54-1.98-.54m-11.93,3.71c0-1.46,1.1-2.52,2.43-2.52s2.43,1.07,2.43,2.52-1.1,2.52-2.43,2.52-2.43-1.06-2.43-2.52m-1.23,0c0,2.04,1.65,3.71,3.66,3.71s3.66-1.67,3.66-3.71-1.65-3.71-3.66-3.71-3.66,1.66-3.66,3.71m-8.7-2.42h3.12v5.94h1.26v-5.94h3.12v-1.11h-3.12v-2.55h-1.26v2.55h-3.12v1.11Zm-8.33,4.02c.6,1.37,1.96,2.1,3.62,2.1s3.07-.95,3.07-2.33c0-2.8-4.89-1.42-4.89-2.94,0-.65.63-1.08,1.56-1.08s1.62.36,1.95,1.11l1.17-.48c-.48-.99-1.41-1.69-3.01-1.69-1.69,0-2.86.97-2.86,2.22,0,2.74,4.85,1.17,4.85,2.91,0,.76-.81,1.21-1.79,1.21-1.08,0-2.1-.53-2.46-1.53l-1.2.49Z"/>
          <path class="cls-10" d="m475.83,575.24c-2.36-4.59-6.63-6.63-12.03-6.63-4.28,0-7.94,1.3-10.54,3.6-2.17-2.29-5.21-3.6-8.56-3.6-4.15,0-7.5,1.36-9.73,3.78l.43-2.79h-13.64l-4.34,32.24h15.5l2.29-17.3c.25-2.05,1.36-3.04,2.91-3.04,1.43,0,2.42.81,2.42,2.48,0,.19,0,.68-.25,2.42l-2.05,15.44h15.5l2.29-17.3c.25-2.05,1.36-3.04,2.91-3.04,1.43,0,2.42.81,2.42,2.48,0,.19,0,.68-.25,2.42l-2.05,15.44h15.5l2.17-16.68c.31-2.23.37-3.1.37-3.97,0-2.36-.5-4.28-1.3-5.95m-63.05-8.43c3.6,0,6.39-2.79,6.39-6.39s-2.79-6.39-6.39-6.39-6.39,2.79-6.39,6.39,2.79,6.39,6.39,6.39m-14.82,0c3.6,0,6.32-2.79,6.32-6.39s-2.73-6.39-6.32-6.39-6.45,2.79-6.45,6.39,2.79,6.39,6.45,6.39m3.72,23.68c-2.48,0-3.72-1.49-3.72-3.97,0-3.16,1.43-5.58,4.22-5.58,2.54,0,3.78,1.61,3.78,4.03,0,2.79-1.36,5.52-4.28,5.52m-.87,12.34c11.84,0,20.58-7.25,20.58-18.41,0-9.55-7.75-15.81-18.35-15.81-11.84,0-20.58,7.25-20.58,18.35,0,9.61,7.75,15.87,18.35,15.87m-16.18-33.54c-3.97,0-7.44,1.49-9.8,3.97l.5-3.66h-14.26l-4.34,32.24h15.5l1.55-11.41c.43-3.22,1.18-4.71,2.29-5.83,1.36-1.36,3.35-2.11,5.39-2.11,1.3,0,2.67.25,4.03.81l1.86-13.76c-.87-.12-1.74-.25-2.73-.25m-40.18,9.92l-2.98,22.63h10.42l2.98-22.63h6.94l1.12-8.37h-6.94l1.43-10.54h-10.42l-1.43,10.54h-5.89l-1.12,8.37h5.89Zm-14.57,13.89c0,1.49-1.18,2.54-2.79,2.54s-2.98-1.05-3.29-2.67l-7.87.68c.56,5.15,5.33,9.05,11.16,9.05,6.26,0,10.97-4.4,10.97-9.8,0-3.66-1.86-6.7-5.27-8.62l-4.15-2.36c-1.3-.74-1.8-1.3-1.8-2.23,0-1.24.99-1.92,2.36-1.92,1.18,0,2.29.81,2.6,2.05l7.56-2.36c-1.18-3.97-5.27-6.76-10.17-6.76-6.01,0-10.54,4.09-10.54,9.24,0,4.03,2.42,6.7,4.9,8.12l4.34,2.48c1.3.74,1.98,1.3,1.98,2.54m-11.9-21.7c-3.35,0-6.32,1.49-8.56,3.91l.43-3.47h-6.7l-3.97,30.01h7.13l2.05-15.25c.43-3.16,1.24-4.9,2.54-6.14,1.55-1.49,3.66-2.36,6.01-2.36.93,0,1.98.12,3.04.37l.87-6.7c-.93-.25-1.92-.37-2.85-.37m-32.86,5.89c3.84,0,6.63,2.73,6.94,6.45h-14.88c.68-3.78,3.84-6.45,7.94-6.45m14.14,8.62c0-8.43-5.83-14.88-13.76-14.88-9.11,0-15.93,7.25-15.93,16.8,0,8.31,6.26,14.82,14.57,14.82,5.83,0,10.79-2.85,13.7-7.13l-5.39-3.84c-1.67,2.6-4.4,4.22-7.63,4.22-4.34,0-7.75-2.85-8-6.88h22.13c.19-.99.31-2.05.31-3.1m-47.74,10.6c-4.77,0-8.43-3.78-8.43-8.93,0-5.77,4.15-10.17,9.67-10.17,4.84,0,8.43,3.84,8.43,8.93,0,5.77-4.22,10.17-9.67,10.17m20.21-42.9h-6.32l-2.98,22.32c-2.42-2.85-5.89-4.59-9.86-4.59-9.05,0-16.06,7.44-16.06,16.68,0,8.12,6.08,14.57,13.95,14.57,3.47,0,6.63-1.18,9.18-3.22l-.31,2.48h5.95l6.45-48.24Zm-41.42,14.01c2.11,0,3.84-1.74,3.84-3.84s-1.74-3.84-3.84-3.84-3.84,1.74-3.84,3.84,1.74,3.84,3.84,3.84m-13.02,0c2.11,0,3.84-1.74,3.84-3.84s-1.74-3.84-3.84-3.84-3.84,1.74-3.84,3.84,1.74,3.84,3.84,3.84m2.85,29.26c-4.96,0-8.68-3.97-8.68-9.11,0-6.14,4.46-10.6,10.04-10.6,4.96,0,8.62,3.91,8.62,9.11,0,6.14-4.4,10.6-9.98,10.6m-.25,5.64c9.11,0,16.43-7.25,16.43-16.37,0-8-6.2-14.63-14.57-14.63-9.18,0-16.49,7.38-16.49,16.43,0,8,6.26,14.57,14.63,14.57m-21.51-14.14c0,4.65-3.66,8.25-8.74,8.25s-8.8-3.22-9.3-7.56l-6.32.5c.62,7.32,7.32,13.02,15.62,13.02,8.74,0,15.19-6.32,15.19-14.2,0-5.77-3.1-10.35-9.36-13.58l-3.97-2.05c-3.78-1.98-4.9-3.91-4.9-6.32,0-3.47,2.79-6.14,6.51-6.14,2.98,0,5.33,1.67,6.26,4.15l5.77-2.54c-1.86-4.46-6.45-7.56-12.03-7.56-7.38,0-12.96,5.39-12.96,12.09,0,5.15,3.04,9.24,8.68,12.09l3.6,1.8c4.09,2.05,5.95,4.77,5.95,8.06m-53.32-14.94l-3.84,28.4h3.53l2.29-17.55c.43-3.16,1.3-4.84,2.48-6.01,1.49-1.49,3.41-2.23,5.64-2.23,2.11,0,4.22.74,5.7,2.67.81,1.12,1.43,2.48,1.43,4.28,0,.87-.12,1.49-.31,2.91l-2.17,15.93h3.53l2.17-16.24c.19-1.49.31-2.36.31-3.1,0-2.6-.74-4.4-1.92-5.95-1.92-2.54-4.84-3.84-8.06-3.84s-5.83,1.24-7.81,3.22l.31-2.48h-3.29Zm-22.38,25.73c-5.83,0-10.04-4.53-10.04-10.85,0-7.07,4.77-12.21,11.53-12.21,5.83,0,9.92,4.46,9.92,10.79,0,7.13-4.71,12.28-11.41,12.28m16.49-25.73h-3.53l-.74,5.33c-2.17-3.72-5.89-6.08-10.48-6.08-8.93,0-15.31,6.82-15.31,15.87,0,7.94,5.58,14.01,13.33,14.01,4.03,0,7.5-1.55,10.04-4.15l-.43,3.41h3.29l3.84-28.4Zm-30.5.43c-3.41,0-6.63,1.8-8.37,4.71l.5-4.03h-1.18l-3.6,27.28h1.24l2.29-17.11c.5-3.66,1.55-5.64,3.04-7.19,1.55-1.61,3.72-2.54,6.08-2.54.99,0,2.11.19,3.1.56l.19-1.18c-1.05-.31-2.23-.5-3.29-.5m-19.84-6.14c1.05,0,1.86-.81,1.86-1.86s-.81-1.86-1.86-1.86-1.86.81-1.86,1.86.81,1.86,1.86,1.86m-10.29,0c1.05,0,1.86-.81,1.86-1.86s-.81-1.86-1.86-1.86-1.86.81-1.86,1.86.81,1.86,1.86,1.86m1.49,33.6c-6.88,0-11.9-5.52-11.9-12.15,0-7.44,5.83-14.14,13.52-14.14,6.88,0,11.9,5.46,11.9,12.15,0,7.44-5.83,14.14-13.52,14.14m-13.14-12.15c0,7.25,5.52,13.27,13.08,13.27,8.18,0,14.82-6.94,14.82-15.25,0-7.25-5.52-13.27-13.08-13.27-8.18,0-14.82,6.94-14.82,15.25m-1.92-7.75c-1.18,11.47-10.73,20.03-22.57,20.03s-20.46-9.42-20.46-21.45c0-13.76,10.42-24.55,23.62-24.55,7.81,0,14.63,4.28,18.1,11.22l1.12-.5c-3.47-7.01-10.66-11.84-19.22-11.84-14.07,0-24.86,11.47-24.86,25.67,0,12.46,9.42,22.57,21.7,22.57,13.08,0,23.25-9.86,23.93-22.26h-17.86l-.12,1.12h16.62Z"/>
          <path class="cls-10" d="m457.79,524.89l-3.6,27.28h1.24l2.48-18.17c.43-3.16,1.36-4.96,2.67-6.26,1.55-1.55,3.6-2.48,6.08-2.48s4.96.87,6.63,3.16c.93,1.24,1.55,2.79,1.55,4.84,0,.87-.12,1.61-.31,2.98l-2.11,15.93h1.24l2.11-15.87c.19-1.43.31-2.17.31-3.04,0-2.36-.74-4.15-1.8-5.58-1.74-2.29-4.65-3.53-7.56-3.53-3.41,0-6.39,1.61-8.12,4.34l.43-3.6h-1.24Zm-17.79.37c5.83,0,10.54,5.33,10.42,12.03h-22.57c.87-6.88,5.95-12.03,12.15-12.03m0-1.12c-7.56,0-13.52,6.82-13.52,15.25,0,7.44,5.21,13.52,11.9,13.52,5.7,0,10.42-3.41,12.52-8.31l-1.05-.37c-2.11,4.65-6.45,7.56-11.47,7.56-5.89,0-10.66-5.52-10.66-12.4v-.99h23.93v-.93c.19-7.32-5.02-13.33-11.66-13.33m-22.01,28.02h1.24l3.47-26.16h6.32l.12-1.12h-6.32l1.36-9.86h-1.24l-1.36,9.86h-5.39l-.12,1.12h5.39l-3.47,26.16Zm-5.15-6.88c0,3.66-2.98,6.51-6.88,6.51-3.6,0-6.7-2.48-7.13-5.83l-1.18.06c.43,3.84,3.97,6.88,8.31,6.88,4.65,0,8.12-3.41,8.12-7.63,0-3.47-1.8-5.64-5.33-7.5l-2.48-1.3c-2.73-1.43-4.15-3.22-4.15-5.77,0-3.04,2.67-5.46,5.95-5.46,2.79,0,5.21,1.74,5.83,4.22l1.18-.31c-.74-2.85-3.6-5.02-7.01-5.02-4.03,0-7.19,2.98-7.19,6.57,0,2.98,1.67,5.15,4.9,6.82l2.48,1.3c3.22,1.67,4.59,3.47,4.59,6.45m-17.17-17.61c-1.49-2.73-4.22-4.65-7.94-4.65s-6.63,1.67-8.43,4.28c-1.49-2.54-4.28-4.28-7.69-4.28-2.6,0-4.9.99-6.63,2.6l.25-1.86h-3.29l-3.78,28.4h3.53l2.48-18.72c.37-2.73.99-4.03,1.92-4.96,1.3-1.3,2.91-2.11,4.77-2.11,2.36,0,4.4,1.05,5.39,3.1.37.74.62,1.55.62,2.79,0,.56-.06,1.18-.19,2.23l-2.42,17.67h3.53l2.48-18.66c.37-2.73.99-4.03,1.92-4.96,1.3-1.3,2.91-2.11,4.77-2.11,2.36,0,4.4,1.05,5.39,3.1.37.74.62,1.55.62,2.79,0,.56-.06,1.18-.19,2.23l-2.42,17.61h3.53l2.48-18.41c.12-.81.19-1.55.19-2.17,0-1.67-.37-2.85-.93-3.91m-40.49-23.75l-6.45,48.24h3.53l6.45-48.24h-3.53Zm-25.05,45.57c-5.83,0-10.04-4.53-10.04-10.85,0-7.07,4.77-12.21,11.53-12.21,5.83,0,9.92,4.46,9.92,10.79,0,7.13-4.71,12.28-11.41,12.28m16.49-25.73h-3.53l-.74,5.33c-2.17-3.72-5.89-6.08-10.48-6.08-8.93,0-15.31,6.82-15.31,15.87,0,7.94,5.58,14.01,13.33,14.01,4.03,0,7.5-1.55,10.04-4.15l-.43,3.41h3.29l3.84-28.4Zm-38.44,28.4h6.08l-2.85-49.23-22.69,37.82-12.15-37.82-16,49.23h6.26l9.73-30.57,10.54,32.67,19.47-32.49,1.61,30.38Zm-78.37-5.33c-4.77,0-8.43-3.78-8.43-8.93,0-5.77,4.15-10.17,9.67-10.17,4.84,0,8.43,3.84,8.43,8.93,0,5.77-4.22,10.17-9.67,10.17m17.73-24.43h-6.32l-.5,3.91c-2.42-2.91-5.89-4.65-9.86-4.65-9.05,0-16.06,7.44-16.06,16.68,0,8.12,6.08,14.57,13.95,14.57,3.47,0,6.63-1.18,9.18-3.22l-.31,2.48h5.95l3.97-29.76Zm-39.56,0l-3.97,29.76h6.32l3.97-29.76h-6.32Zm4.34-4.59c2.36,0,4.34-1.98,4.34-4.34s-1.98-4.34-4.34-4.34-4.34,1.98-4.34,4.34,1.98,4.34,4.34,4.34m-35.71,4.03l-4.03,30.32h8.06l2.36-17.73c.31-2.6.99-3.78,1.86-4.65,1.12-1.18,2.6-1.74,4.15-1.74,1.86,0,3.53.74,4.65,2.17.56.74.99,1.74.99,3.04,0,.5-.06.93-.19,2.05l-2.29,16.86h8.06l2.17-16.31c.19-1.61.37-2.54.37-3.53,0-2.85-.93-5.08-2.29-6.88-2.11-2.79-5.52-4.46-8.99-4.46-3.29,0-6.14,1.3-8.12,3.53l.37-2.67h-7.13Zm-22.2,21.89c-3.6,0-6.2-2.85-6.2-6.76,0-4.28,3.04-7.38,7.19-7.38,3.6,0,6.2,2.79,6.2,6.51,0,4.4-3.04,7.63-7.19,7.63m19.34-22.57h-10.23l-.37,2.67c-2.29-2.29-5.39-3.66-8.87-3.66-9.49,0-16.8,7.69-16.8,17.55,0,8.68,6.32,15.44,14.57,15.44,3.6,0,6.82-1.36,9.24-3.66l-.37,2.67h8.74l4.09-31Zm-39-18.23c-4.22,0-7.56,1.43-9.98,3.78-2.05,2.11-3.35,4.9-3.97,9.3l-.56,3.91h-4.96l-1.67,12.28h4.96l-2.67,19.96h15.5l2.67-19.96h5.83l1.67-12.28h-5.83l.06-.5c.25-2.36,1.92-3.6,4.09-3.6.74,0,1.49.06,2.17.25l1.49-11.28c-2.6-1.24-5.58-1.86-8.8-1.86m-36.33,25.61c1.98,0,3.47,1.43,3.47,3.72v.19h-7.44c.12-2.29,1.86-3.91,3.97-3.91m-4.46,10.54h21.95c.31-1.3.5-2.79.5-4.28,0-9.61-7.38-15.87-17.42-15.87-11.28,0-19.65,7.25-19.65,18.29,0,9.67,7.38,15.93,17.36,15.93,9.24,0,16.49-4.34,18.85-11.41l-13.89-1.24c-.56,1.86-2.23,3.04-4.34,3.04-1.92,0-3.41-1.49-3.41-3.72,0-.25,0-.43.06-.74m-31.93-6.88l-2.67,19.96h15.5l2.67-19.96h5.21l1.67-12.28h-5.21l1.43-11.04h-15.5l-1.43,11.04h-4.96l-1.67,12.28h4.96Zm-21.2,20.96c10.85,0,19.28-7.25,19.28-16.86,0-7.69-4.46-11.41-11.35-13.76l-1.05-.37c-2.23-.81-3.97-1.49-3.97-2.98s1.36-2.17,3.22-2.17c2.54,0,5.52,1.12,9.18,4.22l6.76-10.91-1.36-1.05c-4.22-3.29-9.3-4.84-14.57-4.84-10.66,0-18.97,7.25-18.97,16.8,0,6.2,3.66,10.6,9.86,12.83l1.36.5c2.29.81,4.9,1.49,4.9,3.53,0,1.61-1.67,2.42-3.84,2.42-3.16,0-7.38-1.61-11.84-5.15l-6.51,11.16,1.49,1.12c5.08,3.78,11.04,5.52,17.42,5.52"/>
          <path class="cls-7" d="m298.24,476.01c0-3.69-2.43-6.35-5.85-7.26v1.34c2.37.6,4.56,2.65,4.56,5.92s-2.19,5.33-4.56,5.92v1.34c3.42-.92,5.85-3.57,5.85-7.26m-12.82,1.91c.6,1.36,1.96,2.1,3.61,2.1s3.08-.95,3.08-2.33c0-2.8-4.89-1.42-4.89-2.94,0-.64.63-1.08,1.56-1.08s1.62.36,1.95,1.11l1.17-.48c-.48-.99-1.41-1.69-3.01-1.69-1.7,0-2.87.98-2.87,2.22,0,2.74,4.85,1.17,4.85,2.91,0,.76-.81,1.21-1.79,1.21-1.08,0-2.1-.53-2.46-1.53l-1.2.49Zm-5.08.92c-1.17,0-1.9-.75-1.9-2.06v-3.99h-1.26v4.14c0,1.85,1.33,3.09,3.17,3.09s3.16-1.25,3.16-3.08v-4.15h-1.26v3.99c0,1.31-.74,2.06-1.9,2.06m-9.27-2.83c0,3.69,2.43,6.35,5.85,7.26v-1.34c-2.37-.6-4.56-2.65-4.56-5.92s2.19-5.33,4.56-5.92v-1.34c-3.42.92-5.85,3.57-5.85,7.26m-13.43-8.26v12.09h1.26v-1.82l1.27-1.24,3.07,3.06h1.62l-3.87-3.87,3.27-3.18h-1.54l-3.82,3.83v-8.87h-1.26Zm-3.5,7.93v.9h1.24v-1.12c0-1.49-.96-2.85-2.64-2.85-1.12,0-2.01.61-2.52,1.56v-1.38h-1.26v7.05h1.26v-3.51c0-1.5.84-2.57,2.06-2.57,1.14,0,1.86.82,1.86,1.92m-13.39.63c0-1.45,1.1-2.52,2.43-2.52s2.43,1.07,2.43,2.52-1.1,2.52-2.43,2.52-2.43-1.07-2.43-2.52m-1.23,0c0,2.04,1.65,3.71,3.66,3.71s3.66-1.67,3.66-3.71-1.65-3.7-3.66-3.7-3.66,1.66-3.66,3.7m-7.81,7.33h1.33l5.61-10.86h-1.33l-2.39,4.64-2.62-4.64h-1.46l3.39,5.95-2.53,4.9Zm-10.15-11.1l-1.74,4.77-1.63-4.53h-1.28l2.84,7.44,1.82-4.67,1.81,4.67,2.84-7.44h-1.27l-1.64,4.53-1.74-4.77Zm-8.8,1.21c1.2,0,1.92.76,2.09,1.76h-4.38c.32-1.04,1.2-1.76,2.29-1.76m0,5.07c-1.24,0-2.31-.98-2.4-2.34h5.82c0-2.52-1.53-3.88-3.42-3.88s-3.6,1.66-3.6,3.7,1.62,3.71,3.6,3.71c1.38,0,2.58-.74,3.29-2.06l-1.02-.57c-.49.93-1.1,1.44-2.26,1.44m-7.01-3.39v4.39h1.26v-4.71c0-1.36-.87-2.52-2.49-2.52-1.05,0-1.83.51-2.31,1.27v-1.1h-1.26v7.05h1.26v-3.85c0-1.4.78-2.25,1.89-2.25,1.03,0,1.65.63,1.65,1.71"/>
          <path class="cls-8" d="m460.88,461.58c10.91,0,18.66-6.42,18.66-15.31,0-7.74-5.72-12.5-13.64-14.34-4.84-1.14-6.16-1.67-6.16-3.17,0-1.58,1.85-2.38,4.05-2.38,2.46,0,5.02,1.06,6.78,2.38l1.06.79,6.42-9.42-1.58-1.06c-3.96-2.64-8.71-4.31-13.82-4.31-9.77,0-17.86,5.9-17.86,14.87,0,7.74,4.84,12.32,12.85,14.17,5.02,1.14,6.95,1.85,6.95,3.43,0,1.76-1.85,2.46-4.14,2.46-3.43,0-6.34-1.14-10.21-3.96l-6.95,10.21,1.76,1.14c4.49,2.82,9.5,4.49,15.84,4.49m-60.01-45.41v44h14.78v-23.41c0-3.78.7-5.54,2.02-6.86,1.23-1.23,2.99-1.94,5.1-1.94s3.87.7,5.1,1.94c1.32,1.32,2.02,3.08,2.02,6.86v23.41h14.78v-25.26c0-7.3-1.94-11.88-5.1-15.05s-7.83-5.19-12.94-5.1c-5.28.09-9.5,2.02-12.32,5.1v-3.7h-13.46Zm-24.32,32.03c-5.46,0-9.5-4.22-9.5-10.03s4.05-10.03,9.5-10.03,9.5,4.22,9.5,10.03-4.05,10.03-9.5,10.03m10.38-32.03v3.78c-3.34-3.26-7.83-5.19-12.85-5.19-12.58,0-22.26,10.3-22.26,23.41s9.68,23.41,22.26,23.41c5.02,0,9.5-1.94,12.85-5.19v3.78h13.46v-44h-13.46Zm-55.13,10.03c4.22,0,7.48,2.73,8.1,6.42h-16.19c.62-3.7,3.87-6.42,8.1-6.42m22.88,11.97c0-13.55-9.42-23.41-22.88-23.41s-22.88,9.86-22.88,23.41,9.86,23.41,23.67,23.41c9.15,0,16.63-4.66,20.59-11.53l-11.44-5.81c-1.5,2.99-4.75,5.02-8.71,5.02-4.93,0-8.71-2.99-9.33-7.3h30.71c.18-1.23.26-2.46.26-3.78m-119.2-44.35v66.35h14.52v-39.86h.18l18.83,39.86h7.39l18.83-39.86h.18v39.86h14.52v-66.35h-17.69l-19.45,40.92-19.45-40.92h-17.86Z"/>
          <path class="cls-6" d="m232.1,415.64c-4.93,0-9.24,2.11-12.23,5.81v-5.28h-13.46v44h14.78v-18.48c0-4.84,1.06-7.57,3.08-9.59,1.94-1.94,4.75-3.08,8.01-3.08,1.67,0,3.17.18,4.49.62v-13.55c-1.5-.26-3.08-.44-4.66-.44m-48.21,10.56c4.22,0,7.48,2.73,8.1,6.42h-16.19c.62-3.7,3.87-6.42,8.1-6.42m22.88,11.97c0-13.55-9.42-23.41-22.88-23.41s-22.88,9.86-22.88,23.41,9.86,23.41,23.67,23.41c9.15,0,16.63-4.66,20.59-11.53l-11.44-5.81c-1.5,2.99-4.75,5.02-8.71,5.02-4.93,0-8.71-2.99-9.33-7.3h30.71c.18-1.23.26-2.46.26-3.78m-50.21-18.3c-3.26-3.26-7.83-5.19-12.94-5.1-4.49.09-8.27,1.5-11,3.87v-26.93h-14.78v68.46h14.78v-23.41c0-3.78.7-5.54,2.02-6.86,1.23-1.23,2.99-1.94,5.1-1.94s3.87.7,5.1,1.94c1.32,1.32,2.02,3.08,2.02,6.86v23.41h14.78v-25.26c0-7.3-1.94-11.88-5.1-15.05m-61.7,8.18v32.12h14.78v-32.12h9.86v-11.88h-9.86v-14.96h-14.78v14.96h-8.36v11.88h8.36Zm-40.03,18.57c-10.74,0-18.66-8.36-18.66-19.62s7.92-19.62,18.66-19.62,18.66,8.36,18.66,19.62-7.92,19.62-18.66,19.62m0,14.96c19.54,0,34.5-15.22,34.5-34.58s-14.96-34.58-34.5-34.58-34.5,15.22-34.5,34.58,14.96,34.58,34.5,34.58"/>
          <path class="cls-7" d="m348.2,360.01c0-3.69-2.43-6.35-5.85-7.26v1.34c2.37.6,4.56,2.65,4.56,5.92s-2.19,5.33-4.56,5.93v1.33c3.42-.92,5.85-3.57,5.85-7.26m-13.36,3.83h6.96v-1.11h-2.85v-10.98h-4.11v1.11h2.85v9.87h-2.85v1.11Zm-3.38-4.4v4.4h1.26v-4.71c0-1.36-.87-2.52-2.49-2.52-1.05,0-1.83.51-2.31,1.27v-1.1h-1.26v7.05h1.26v-3.86c0-1.39.78-2.25,1.89-2.25,1.04,0,1.65.63,1.65,1.71m-13.6,6.65h1.32l7.38-14.34h-1.32l-7.38,14.34Zm-7.39-14.34v12.09h1.26v-1.82l1.28-1.25,3.07,3.06h1.62l-3.87-3.87,3.27-3.18h-1.54l-3.83,3.83v-8.87h-1.26Zm-9.09,10.17c.6,1.36,1.96,2.1,3.61,2.1s3.08-.95,3.08-2.33c0-2.8-4.89-1.42-4.89-2.94,0-.64.63-1.08,1.56-1.08s1.62.36,1.95,1.11l1.17-.48c-.48-.99-1.41-1.7-3.01-1.7-1.69,0-2.87.98-2.87,2.22,0,2.74,4.85,1.17,4.85,2.91,0,.76-.81,1.21-1.79,1.21-1.08,0-2.1-.52-2.46-1.53l-1.2.49Zm-5.91-1.91c0,3.69,2.43,6.35,5.85,7.26v-1.33c-2.37-.6-4.56-2.66-4.56-5.93s2.19-5.32,4.56-5.92v-1.34c-3.42.92-5.85,3.57-5.85,7.26m-10.14-2.3c-.22-.66-.67-1.1-1.39-1.1-.6,0-1.21.32-1.5,1.1v-.92h-1.18v7.05h1.18v-4.55c0-.98.42-1.56,1.08-1.56.55,0,.89.42.89,1.18v4.92h1.18v-4.55c0-.98.42-1.56,1.08-1.56.55,0,.89.42.89,1.18v4.92h1.18v-5.39c0-1.21-.8-1.85-1.68-1.85-.7,0-1.35.43-1.73,1.1m-11.75,3.89c0-.78.57-1.34,1.3-1.34s1.3.56,1.3,1.34-.57,1.33-1.3,1.33-1.3-.55-1.3-1.33m-1.14,0c0,1.35,1.1,2.43,2.45,2.43s2.45-1.08,2.45-2.43-1.1-2.43-2.45-2.43-2.45,1.08-2.45,2.43m6.79-4.8h-5.56l-.75,1.11h5.05v5.94h1.26v-7.05Zm-14.56,3.52c0-1.45,1.07-2.54,2.46-2.54s2.4,1.08,2.4,2.54-1.04,2.54-2.4,2.54-2.46-1.08-2.46-2.54m4.77-8.57v6.23c-.45-.84-1.46-1.36-2.48-1.36-2.01,0-3.54,1.65-3.54,3.7s1.53,3.71,3.54,3.71c1.02,0,2.02-.52,2.48-1.37v1.19h1.26v-12.09h-1.26Zm-8.81,7.94v.9h1.24v-1.12c0-1.49-.96-2.85-2.64-2.85-1.12,0-2.01.61-2.52,1.56v-1.38h-1.26v7.05h1.26v-3.51c0-1.5.84-2.57,2.05-2.57,1.14,0,1.86.83,1.86,1.92m-10.8-1.92c1.2,0,1.92.76,2.09,1.76h-4.38c.31-1.04,1.2-1.76,2.29-1.76m0,5.07c-1.24,0-2.31-.98-2.4-2.34h5.82c0-2.52-1.53-3.89-3.42-3.89s-3.6,1.67-3.6,3.7,1.62,3.71,3.6,3.71c1.38,0,2.58-.74,3.29-2.05l-1.02-.57c-.5.93-1.1,1.44-2.27,1.44m-12.38-4.93h3.12v5.94h1.26v-5.94h3.12v-1.11h-3.12v-2.55h-1.26v2.55h-3.12v1.11Zm-8.33,4.02c.6,1.36,1.96,2.1,3.61,2.1s3.07-.95,3.07-2.33c0-2.8-4.89-1.42-4.89-2.94,0-.64.63-1.08,1.56-1.08s1.62.36,1.95,1.11l1.17-.48c-.48-.99-1.41-1.7-3.01-1.7-1.7,0-2.87.98-2.87,2.22,0,2.74,4.85,1.17,4.85,2.91,0,.76-.81,1.21-1.79,1.21-1.08,0-2.1-.52-2.46-1.53l-1.2.49Zm-5.09-4.21c-.23-.66-.67-1.1-1.39-1.1-.6,0-1.21.32-1.5,1.1v-.92h-1.18v7.05h1.18v-4.55c0-.98.42-1.56,1.08-1.56.56,0,.89.42.89,1.18v4.92h1.18v-4.55c0-.98.42-1.56,1.08-1.56.56,0,.88.42.88,1.18v4.92h1.18v-5.39c0-1.21-.79-1.85-1.68-1.85-.71,0-1.35.43-1.73,1.1m-11.75,3.89c0-.78.57-1.34,1.3-1.34s1.31.56,1.31,1.34-.57,1.33-1.31,1.33-1.3-.55-1.3-1.33m-1.14,0c0,1.35,1.1,2.43,2.44,2.43s2.44-1.08,2.44-2.43-1.09-2.43-2.44-2.43-2.44,1.08-2.44,2.43m6.79-4.8h-5.57l-.75,1.11h5.06v5.94h1.26v-7.05Zm-20.7,9.3h1.32l7.38-14.34h-1.32l-7.38,14.34Zm-12.03-2.25h6.96v-1.11h-2.85v-10.98h-4.11v1.11h2.85v9.87h-2.85v1.11Zm-5.05-1.01c-1.17,0-1.9-.75-1.9-2.06v-3.99h-1.26v4.14c0,1.85,1.34,3.09,3.16,3.09s3.17-1.24,3.17-3.08v-4.15h-1.26v3.99c0,1.31-.73,2.06-1.9,2.06m-11.25-2.52c0-1.45,1.1-2.52,2.43-2.52s2.43,1.07,2.43,2.52-1.1,2.52-2.43,2.52-2.43-1.07-2.43-2.52m-1.23,0c0,2.04,1.65,3.71,3.66,3.71s3.66-1.67,3.66-3.71-1.65-3.7-3.66-3.7-3.66,1.67-3.66,3.7m-5.08-2.55c1.2,0,1.92.76,2.09,1.76h-4.38c.32-1.04,1.2-1.76,2.29-1.76m0,5.07c-1.24,0-2.31-.98-2.4-2.34h5.82c0-2.52-1.53-3.89-3.42-3.89s-3.6,1.67-3.6,3.7,1.62,3.71,3.6,3.71c1.38,0,2.58-.74,3.29-2.05l-1.02-.57c-.49.93-1.09,1.44-2.26,1.44m-12.13-.92c.6,1.36,1.96,2.1,3.62,2.1s3.07-.95,3.07-2.33c0-2.8-4.89-1.42-4.89-2.94,0-.64.63-1.08,1.56-1.08s1.62.36,1.95,1.11l1.17-.48c-.48-.99-1.41-1.7-3.01-1.7-1.69,0-2.86.98-2.86,2.22,0,2.74,4.85,1.17,4.85,2.91,0,.76-.81,1.21-1.79,1.21-1.08,0-2.1-.52-2.46-1.53l-1.2.49Z"/>
          <path class="cls-11" d="m456.24,330.31l1.85.66c2.51.92,3.56,1.32,3.56,2.44s-.86,1.65-2.38,1.65c-1.91,0-5.02-1.45-7.92-3.63l-5.48,9.11c3.96,2.77,9.37,4.69,15.84,4.69,9.97,0,15.84-5.94,15.84-12.08,0-5.28-2.57-8.38-7.99-10.03l-2.38-.73c-1.52-.46-2.44-.86-2.44-1.85,0-1.06,1.12-1.52,2.51-1.52,1.85,0,4.36,1.06,6.53,3.37l5.48-8.45c-3.76-3.04-8.58-5.08-14.59-5.08-9.9,0-15.71,6.14-15.71,12.28,0,4.88,3.7,7.92,7.26,9.17m-44.29-20.46l-4.55,34.32h16.5l2.38-18.48c.33-2.38,1.65-3.1,3.04-3.1,1.52,0,2.77,1.19,2.77,2.71,0,.53-.13,1.32-.33,2.77l-2.18,16.1h16.5l2.31-17.16c.4-3.1.59-4.16.59-5.48,0-3.89-1.39-6.93-3.56-9.04-2.57-2.44-6.01-3.7-9.7-3.7s-7.13,1.32-9.57,3.63l.33-2.57h-14.52Zm-8.71-16.5c-4.82,0-8.58,3.76-8.58,8.58s3.76,8.58,8.58,8.58,8.58-3.76,8.58-8.58-3.76-8.58-8.58-8.58m2.84,50.82l4.22-31.61h-16.76l-4.22,31.61h16.76Zm-10.82-34.32h-17.69l-6.47,13.13-2.97-13.13h-11.42l-6.53,13.13-2.9-13.13h-16.3l7.79,34.32h15.31l5.94-11.95,2.71,11.95h15.51l17.03-34.32Zm-88.97.4l-4.55,33.92h17.03l4.55-33.92h9.77l2.11-15.84h-36.56l-2.11,15.84h9.77Zm-29.9,20.06l1.85.66c2.51.92,3.56,1.32,3.56,2.44s-.86,1.65-2.38,1.65c-1.91,0-5.02-1.45-7.92-3.63l-5.48,9.11c3.96,2.77,9.37,4.69,15.84,4.69,9.97,0,15.84-5.94,15.84-12.08,0-5.28-2.57-8.38-7.99-10.03l-2.38-.73c-1.52-.46-2.44-.86-2.44-1.85,0-1.06,1.12-1.52,2.51-1.52,1.85,0,4.36,1.06,6.53,3.37l5.48-8.45c-3.76-3.04-8.58-5.08-14.59-5.08-9.9,0-15.71,6.14-15.71,12.28,0,4.88,3.7,7.92,7.26,9.17m-28.78,0l1.85.66c2.51.92,3.56,1.32,3.56,2.44s-.86,1.65-2.38,1.65c-1.91,0-5.02-1.45-7.92-3.63l-5.48,9.11c3.96,2.77,9.37,4.69,15.84,4.69,9.97,0,15.84-5.94,15.84-12.08,0-5.28-2.57-8.38-7.99-10.03l-2.38-.73c-1.52-.46-2.44-.86-2.44-1.85,0-1.06,1.12-1.52,2.51-1.52,1.85,0,4.36,1.06,6.53,3.37l5.48-8.45c-3.76-3.04-8.58-5.08-14.59-5.08-9.9,0-15.71,6.14-15.71,12.28,0,4.88,3.7,7.92,7.26,9.17m-25.87-11.29c2.11,0,3.7,1.52,3.7,3.96v.2h-7.92c.13-2.44,1.98-4.16,4.22-4.16m-4.75,11.22h23.36c.33-1.39.53-2.97.53-4.55,0-10.23-7.85-16.9-18.55-16.9-12.01,0-20.92,7.72-20.92,19.47,0,10.3,7.85,16.96,18.48,16.96,9.83,0,17.56-4.62,20.06-12.14l-14.78-1.32c-.59,1.98-2.38,3.23-4.62,3.23-2.05,0-3.63-1.58-3.63-3.96,0-.26,0-.46.07-.79m-27.32-37.42l-6.86,51.35h16.5l6.86-51.35h-16.5Zm-6.01,23.03c-2.51-4.88-7.06-7.06-12.8-7.06-4.55,0-8.45,1.39-11.22,3.83-2.31-2.44-5.54-3.83-9.11-3.83-4.42,0-7.99,1.45-10.36,4.03l.46-2.97h-14.52l-4.62,34.32h16.5l2.44-18.41c.26-2.18,1.45-3.23,3.1-3.23,1.52,0,2.57.86,2.57,2.64,0,.2,0,.73-.26,2.57l-2.18,16.43h16.5l2.44-18.41c.26-2.18,1.45-3.23,3.1-3.23,1.52,0,2.57.86,2.57,2.64,0,.2,0,.73-.26,2.57l-2.18,16.43h16.5l2.31-17.75c.33-2.38.4-3.3.4-4.22,0-2.51-.53-4.55-1.39-6.34m-59.86-6.34c-4.22,0-7.92,1.58-10.43,4.22l.53-3.89h-15.18l-4.62,34.32h16.5l1.65-12.14c.46-3.43,1.25-5.02,2.44-6.2,1.45-1.45,3.56-2.24,5.74-2.24,1.39,0,2.84.26,4.29.86l1.98-14.65c-.92-.13-1.85-.26-2.9-.26m-48.11,22.57c-2.64,0-3.96-1.58-3.96-4.22,0-3.37,1.52-5.94,4.49-5.94,2.71,0,4.03,1.72,4.03,4.29,0,2.97-1.45,5.87-4.55,5.87m-.92,13.13c12.61,0,21.91-7.72,21.91-19.6,0-10.16-8.25-16.83-19.54-16.83-12.61,0-21.91,7.72-21.91,19.54,0,10.23,8.25,16.9,19.54,16.9m-45.08-50.82l-6.67,49.76h17.03l2.38-17.69h13.46l1.72-12.67h-13.46l.79-6.07h14.45l1.78-13.33h-31.48Z"/>
          <path class="cls-11" d="m410.7,291.04l.99.66,32.27-51.08-.99-.66-32.27,51.08Zm-35.51-33.86l-4.55,34.32h16.5l2.38-18.48c.33-2.38,1.65-3.1,3.04-3.1,1.52,0,2.77,1.19,2.77,2.71,0,.53-.13,1.32-.33,2.77l-2.18,16.1h16.5l2.31-17.16c.4-3.1.59-4.16.59-5.48,0-3.89-1.39-6.93-3.56-9.04-2.57-2.44-6.01-3.7-9.7-3.7s-7.13,1.32-9.57,3.63l.33-2.57h-14.52Zm-17.36,0l-4.62,34.32h16.5l4.62-34.32h-16.5Zm9.64-3.1c5.08,0,9.11-4.03,9.11-9.11s-4.03-9.11-9.11-9.11-9.11,4.03-9.11,9.11,4.03,9.11,9.11,9.11m-15.44,5.74c-2.57-2.44-6.01-3.7-9.7-3.7-2.77,0-5.28.73-7.39,1.98l2.38-17.95h-16.5l-6.8,51.35h16.5l2.38-18.48c.33-2.38,1.65-3.1,3.04-3.1,1.52,0,2.77,1.19,2.77,2.71,0,.53-.13,1.32-.33,2.77l-2.18,16.1h16.5l2.31-17.16c.4-3.1.59-4.16.59-5.48,0-3.89-1.39-6.93-3.56-9.04m-56.04,32.74c11.55,0,20.53-7.72,20.53-17.95,0-8.18-4.75-12.14-12.08-14.65l-1.12-.4c-2.38-.86-4.22-1.58-4.22-3.17s1.45-2.31,3.43-2.31c2.71,0,5.87,1.19,9.77,4.49l7.19-11.62-1.45-1.12c-4.49-3.5-9.9-5.15-15.51-5.15-11.35,0-20.2,7.72-20.2,17.89,0,6.6,3.89,11.29,10.49,13.66l1.45.53c2.44.86,5.21,1.58,5.21,3.76,0,1.72-1.78,2.57-4.09,2.57-3.37,0-7.85-1.72-12.61-5.48l-6.93,11.88,1.58,1.19c5.41,4.03,11.75,5.87,18.55,5.87m-30.29-32.74c-2.57-2.44-6.01-3.7-9.7-3.7-2.77,0-5.28.73-7.39,1.98l2.38-17.95h-16.5l-6.8,51.35h16.5l2.38-18.48c.33-2.38,1.65-3.1,3.04-3.1,1.52,0,2.77,1.19,2.77,2.71,0,.53-.13,1.32-.33,2.77l-2.18,16.1h16.5l2.31-17.16c.4-3.1.59-4.16.59-5.48,0-3.89-1.39-6.93-3.56-9.04m-56.76,20c-2.57,0-4.03-1.72-4.03-4.55,0-3.56,1.91-5.68,4.69-5.68,2.38,0,3.83,1.78,3.83,4.69s-1.45,5.54-4.49,5.54m22.44-22.64h-16.5l-.4,2.57c-2.24-2.18-5.41-3.5-9.24-3.5-9.57,0-16.83,7.85-16.83,20,0,9.83,6.01,16.3,14.59,16.3,3.63,0,6.93-1.19,9.57-3.3l-.33,2.24h14.52l4.62-34.32Zm-66.33,17.42c0-3.7,1.78-5.81,4.62-5.81,2.38,0,3.83,1.72,3.83,4.55,0,3.63-1.85,5.68-4.55,5.68-2.44,0-3.89-1.65-3.89-4.42m26-17.42h-16.5l-.33,2.44c-2.31-2.24-5.48-3.5-9.04-3.5-9.5,0-16.76,7.39-16.76,19.07,0,9.57,6.01,15.91,14.39,15.91,3.37,0,6.4-.99,8.91-2.9l-.46,2.57c-.4,2.51-.92,3.56-1.65,4.29-.79.73-1.91,1.19-3.23,1.19-2.31,0-4.03-1.32-4.29-3.23h-15.38v.79c0,9.24,9.57,14.12,20.79,14.12,4.69,0,8.65-1.06,11.62-3.04,3.96-2.57,6.4-6.6,7.26-12.94l4.69-34.78Zm-78.74,0l-4.55,34.32h16.5l2.38-18.48c.33-2.38,1.65-3.1,3.04-3.1,1.52,0,2.77,1.19,2.77,2.71,0,.53-.13,1.32-.33,2.77l-2.18,16.1h16.5l2.31-17.16c.4-3.1.59-4.16.59-5.48,0-3.89-1.39-6.93-3.56-9.04-2.57-2.44-6.01-3.7-9.7-3.7s-7.13,1.32-9.57,3.63l.33-2.57h-14.52Zm-23.3,22.64c-2.57,0-4.03-1.72-4.03-4.55,0-3.56,1.91-5.68,4.69-5.68,2.38,0,3.83,1.78,3.83,4.69s-1.45,5.54-4.49,5.54m22.44-22.64h-16.5l-.4,2.57c-2.24-2.18-5.41-3.5-9.24-3.5-9.57,0-16.83,7.85-16.83,20,0,9.83,6.01,16.3,14.59,16.3,3.63,0,6.93-1.19,9.57-3.3l-.33,2.24h14.52l4.62-34.32Zm-62.5,35.38c11.55,0,20.53-7.72,20.53-17.95,0-8.18-4.75-12.14-12.08-14.65l-1.12-.4c-2.38-.86-4.22-1.58-4.22-3.17s1.45-2.31,3.43-2.31c2.71,0,5.87,1.19,9.77,4.49l7.19-11.62-1.45-1.12c-4.49-3.5-9.9-5.15-15.51-5.15-11.35,0-20.2,7.72-20.2,17.89,0,6.6,3.89,11.29,10.49,13.66l1.45.53c2.44.86,5.21,1.58,5.21,3.76,0,1.72-1.78,2.57-4.09,2.57-3.37,0-7.85-1.72-12.61-5.48l-6.93,11.88,1.58,1.19c5.41,4.03,11.75,5.87,18.55,5.87"/>
          <path class="cls-7" d="m457.99,824.91h-10.91v12.6h2.34v-10.37h6.23v10.37h2.34v-12.6Zm-19.26,2.02c1.66,0,3.1.79,3.42,2.92h-6.98c.4-1.8,1.62-2.92,3.56-2.92m.25-2.09c-3.53,0-6.3,2.92-6.3,6.41s2.52,6.34,6.37,6.34c2.12,0,4.03-1.08,5.18-2.66l-1.76-1.33c-.72,1.04-1.87,1.73-3.42,1.73-2.56,0-3.82-1.51-4-3.56h9.4c.5-4.25-2.23-6.91-5.47-6.91m-11.16,8.68c-.65.97-1.91,1.8-3.49,1.8-2.48,0-4.1-1.8-4.1-4.07s1.55-4.14,4.1-4.14c1.58,0,2.84.83,3.49,1.87v4.54Zm2.34-19.69h-2.34v12.06c-1.01-.65-2.2-1.04-3.49-1.04-3.6,0-6.44,2.84-6.44,6.41s2.88,6.34,6.44,6.34c1.26,0,2.48-.43,3.49-1.12v1.04h2.34v-23.69Zm-19.91,13.1c1.66,0,3.1.79,3.42,2.92h-6.98c.4-1.8,1.62-2.92,3.56-2.92m.25-2.09c-3.53,0-6.3,2.92-6.3,6.41s2.52,6.34,6.37,6.34c2.12,0,4.03-1.08,5.18-2.66l-1.76-1.33c-.72,1.04-1.87,1.73-3.42,1.73-2.56,0-3.82-1.51-4-3.56h9.4c.5-4.25-2.23-6.91-5.47-6.91m-12.38,8.39l-4.03-8.53-4.46,8.53-3.96-8.32h-2.59l6.55,12.82,4.32-8.24,4.18,8.24,6.73-12.82h-2.41l-4.32,8.32Zm-19.01-8.39c-1.94,0-3.71,1.3-3.71,3.46,0,1.87,1.15,2.77,2.7,3.56,2.34,1.19,2.81,1.4,2.81,2.27s-.86,1.3-1.84,1.3c-1.58,0-2.16-1.01-2.41-1.55l-2.05.9c.61,1.37,1.73,2.81,4.5,2.81,2.02,0,4.14-1.33,4.14-3.6s-1.69-3.02-3.42-3.82c-1.04-.54-2.09-.94-2.09-1.98,0-.65.5-1.26,1.37-1.26.47,0,.94.25,1.19.79l2.12-.79c-.5-1.15-1.37-2.09-3.31-2.09m-20.02,2.27c2.34,0,4,1.8,4,4.14s-1.66,4.07-4,4.07-4.03-1.8-4.03-4.07,1.55-4.14,4.03-4.14m0-2.27c-3.53,0-6.37,2.84-6.37,6.41s2.88,6.34,6.37,6.34,6.34-2.99,6.34-6.34c0-3.56-2.81-6.41-6.34-6.41m2.34-7.63c-.79,0-1.4.58-1.4,1.37s.61,1.37,1.4,1.37,1.37-.58,1.37-1.37-.61-1.37-1.37-1.37m-4.64,0c-.79,0-1.4.58-1.4,1.37s.61,1.37,1.4,1.37,1.37-.58,1.37-1.37-.61-1.37-1.37-1.37m-12.92,18.11c-2.41,0-4.03-1.8-4.03-4.07s1.55-4.14,4.03-4.14c2.34,0,4,1.8,4,4.14s-1.66,4.07-4,4.07m6.34-10.4h-2.34v1.33c-1.08-.86-2.48-1.4-4-1.4-3.53,0-6.37,2.84-6.37,6.41s2.88,6.34,6.37,6.34c1.48,0,2.88-.58,4-1.51v2.63c0,2.23-1.22,4.18-3.96,4.18-2.95,0-3.82-2.09-3.82-4.14h-2.34c-.07,3.64,2.27,6.48,6.05,6.48,4.61,0,6.41-3.46,6.41-6.3v-14Zm-15.41,0h-10.91v12.6h2.34v-10.37h6.23v10.37h2.34v-12.6Zm-14.15,0h-2.34v12.6h2.34v-12.6Zm-1.19-7.85c-.86,0-1.55.68-1.55,1.51s.68,1.55,1.55,1.55,1.51-.68,1.51-1.55-.68-1.51-1.51-1.51m-6.73,16.45c-.65.97-1.91,1.8-3.49,1.8-2.48,0-4.1-1.8-4.1-4.07s1.55-4.14,4.1-4.14c1.58,0,2.84.83,3.49,1.87v4.54Zm2.34-19.69h-2.34v12.06c-1.01-.65-2.2-1.04-3.49-1.04-3.6,0-6.44,2.84-6.44,6.41s2.88,6.34,6.44,6.34c1.26,0,2.48-.43,3.49-1.12v1.04h2.34v-23.69Zm-14.8,11.09h-2.34v12.6h2.34v-12.6Zm-1.19-7.85c-.86,0-1.55.68-1.55,1.51s.68,1.55,1.55,1.55,1.51-.68,1.51-1.55-.68-1.51-1.51-1.51m-4.39-3.24h-2.34v23.69h2.34v-23.69Z"/>
          <path class="cls-7" d="m436.26,800.63l-3.96-.07,3.17-4.03,1.01-1.51-.18,1.91-.04,3.71Zm5.04,1.87v-1.84l-2.92-.04v-10.73l-9.97,12.6h7.81l-.11,7.85h2.27v-7.85h2.92Zm-13.57-5.76v-1.84h-8.28l-2.77,11.05c2.74-.79,3.53-1.15,4.9-1.15,2.09,0,3.92,1.55,3.92,3.96,0,2.16-1.4,4.1-4.1,4.1-2.27,0-3.49-1.37-4.36-3.13l-2.2.97c1.55,2.99,3.53,4.46,6.48,4.46,3.71,0,6.55-3.06,6.55-6.37s-2.95-6.12-5.44-6.12c-.36,0-1.76.32-2.77.79l1.66-6.73h6.41Zm-21.89,1.16h-10.91v12.6h2.34v-10.37h6.23v10.37h2.34v-12.6Zm-19.26,2.02c1.66,0,3.1.79,3.42,2.92h-6.98c.4-1.8,1.62-2.92,3.56-2.92m.25-2.09c-3.53,0-6.3,2.92-6.3,6.41s2.52,6.34,6.37,6.34c2.12,0,4.03-1.08,5.18-2.66l-1.76-1.33c-.72,1.04-1.87,1.73-3.42,1.73-2.56,0-3.82-1.51-4-3.56h9.4c.5-4.25-2.23-6.91-5.47-6.91m-15.16,10.48c-2.41,0-4.03-1.8-4.03-4.07s1.55-4.14,4.03-4.14c2.34,0,4,1.8,4,4.14s-1.66,4.07-4,4.07m6.34-10.4h-2.34v1.33c-1.08-.86-2.48-1.4-4-1.4-3.53,0-6.37,2.84-6.37,6.41s2.88,6.34,6.37,6.34c1.48,0,2.88-.58,4-1.51v2.63c0,2.23-1.22,4.18-3.96,4.18-2.95,0-3.82-2.09-3.82-4.14h-2.34c-.07,3.64,2.27,6.48,6.05,6.48,4.61,0,6.41-3.46,6.41-6.3v-14Zm-22.82,6.26c1.37,0,2.38,1.04,2.38,2.23s-1.01,2.23-2.38,2.23-2.34-1.04-2.34-2.23,1.01-2.23,2.34-2.23m0-2.05c-2.45,0-4.39,1.91-4.39,4.28s1.94,4.28,4.39,4.28,4.43-1.91,4.43-4.28-1.94-4.28-4.43-4.28m7.42,8.39v-12.6h-8.78l-1.08,2.23h7.52v10.37h2.34Zm-1.84-20.3c-.79,0-1.4.58-1.4,1.37s.61,1.37,1.4,1.37,1.37-.58,1.37-1.37-.61-1.37-1.37-1.37m-4.64,0c-.79,0-1.4.58-1.4,1.37s.61,1.37,1.4,1.37,1.37-.58,1.37-1.37-.61-1.37-1.37-1.37m-11.52,20.52l6.73-12.82h-2.41l-4.32,8.35-3.96-8.35h-2.59l6.55,12.82Zm-15.77-6.55c1.37,0,2.38,1.04,2.38,2.23s-1.01,2.23-2.38,2.23-2.34-1.04-2.34-2.23,1.01-2.23,2.34-2.23m0-2.05c-2.45,0-4.39,1.91-4.39,4.28s1.94,4.28,4.39,4.28,4.43-1.91,4.43-4.28-1.94-4.28-4.43-4.28m7.42,8.39v-12.6h-8.78l-1.08,2.23h7.52v10.37h2.34Zm-20.48-9.2c-2.41,0-4.03-1.8-4.03-4.07s1.55-4.14,4.03-4.14c2.34,0,4,1.8,4,4.14s-1.66,4.07-4,4.07m6.34-10.4h-2.34v1.33c-1.08-.86-2.48-1.4-4-1.4-3.53,0-6.37,2.84-6.37,6.41s2.88,6.34,6.37,6.34c1.48,0,2.88-.58,4-1.51v2.63c0,2.23-1.22,4.18-3.96,4.18-2.95,0-3.82-2.09-3.82-4.14h-2.34c-.07,3.64,2.27,6.48,6.05,6.48,4.61,0,6.41-3.46,6.41-6.3v-14Zm-19.87,17.44c-1.15,0-2.12-.9-2.12-2.2s.97-2.2,2.12-2.2,2.12.9,2.12,2.2-.97,2.2-2.12,2.2m4.46-10.44h-6.77l-1.08,2.23h5.51v2.23c-.61-.32-1.33-.5-2.12-.5-2.63,0-4.54,1.91-4.54,4.28s1.91,4.28,4.54,4.28c.79,0,1.51-.18,2.12-.5v.58h2.34v-12.6Z"/>
          <path class="cls-7" d="m222.96,824.91h-10.91v12.6h2.34v-10.37h6.23v10.37h2.34v-12.6Zm-16.23,12.6l-3.35,3.2-3.38-3.2h6.73Zm-6.34-8.42c0-1.3.97-2.2,2.12-2.2s2.12.9,2.12,2.2-.97,2.2-2.12,2.2-2.12-.9-2.12-2.2m8.78,6.19h-7.09l3.31-2.88.29-.25.04-.04c.79-.79,1.26-1.84,1.26-3.02,0-.68-.18-1.37-.47-1.94h2.41v-2.23h-2.81v1.62c-.79-1.04-2.09-1.73-3.6-1.73-2.63,0-4.54,1.91-4.54,4.28,0,2.02,1.4,3.71,3.46,4.18l-2.41,2.02.65,1.91-2.09-1.98v2.48l5.8,5.54,5.8-5.72v-2.23Zm-14.83-10.37h-2.34v12.6h2.34v-12.6Zm-1.19-7.85c-.86,0-1.55.68-1.55,1.51s.68,1.55,1.55,1.55,1.51-.68,1.51-1.55-.68-1.51-1.51-1.51m-7.27,7.78c-1.94,0-3.71,1.3-3.71,3.46,0,1.87,1.15,2.77,2.7,3.56,2.34,1.19,2.81,1.4,2.81,2.27s-.86,1.3-1.84,1.3c-1.58,0-2.16-1.01-2.41-1.55l-2.05.9c.61,1.37,1.73,2.81,4.5,2.81,2.02,0,4.14-1.33,4.14-3.6s-1.69-3.02-3.42-3.82c-1.04-.54-2.09-.94-2.09-1.98,0-.65.5-1.26,1.37-1.26.47,0,.94.25,1.19.79l2.12-.79c-.5-1.15-1.37-2.09-3.31-2.09m-11.59,2.09c1.66,0,3.1.79,3.42,2.92h-6.98c.4-1.8,1.62-2.92,3.56-2.92m.25-2.09c-3.53,0-6.3,2.92-6.3,6.41s2.52,6.34,6.37,6.34c2.12,0,4.03-1.08,5.18-2.66l-1.76-1.33c-.72,1.04-1.87,1.73-3.42,1.73-2.56,0-3.82-1.51-4-3.56h9.4c.5-4.25-2.23-6.91-5.47-6.91m-14.08,8.21c-1.8,0-2.99-1.33-2.99-2.95s1.15-3.02,2.99-3.02c1.55,0,2.7,1.08,2.92,2.52v.97c-.22,1.4-1.37,2.48-2.92,2.48m5.26-19.22h-2.34v11.88c-.83-.54-1.84-.86-2.92-.86-2.99,0-5.29,2.3-5.29,5.26s2.34,5.15,5.29,5.15c1.08,0,2.09-.36,2.92-.94v3.2h2.34v-23.69Zm-23.11,11.09v-6.59c0-1.33.97-2.45,2.38-2.45s2.45,1.12,2.45,2.45h2.12c0-2.52-1.98-4.61-4.54-4.61s-4.75,2.09-4.75,4.61v6.59h-1.4v2.05h1.4v10.55h2.34v-10.55h5.26v-2.05h-5.26Zm-12.24,2.2c2.34,0,4,1.8,4,4.14s-1.66,4.07-4,4.07-4.03-1.8-4.03-4.07,1.55-4.14,4.03-4.14m0-2.27c-3.53,0-6.37,2.84-6.37,6.41s2.88,6.34,6.37,6.34,6.34-2.99,6.34-6.34c0-3.56-2.81-6.41-6.34-6.41m-21.92,2.09c1.66,0,3.1.79,3.42,2.92h-6.98c.4-1.8,1.62-2.92,3.56-2.92m.25-2.09c-3.53,0-6.3,2.92-6.3,6.41s2.52,6.34,6.37,6.34c2.12,0,4.03-1.08,5.18-2.66l-1.76-1.33c-.72,1.04-1.87,1.73-3.42,1.73-2.56,0-3.82-1.51-4-3.56h9.4c.5-4.25-2.23-6.91-5.47-6.91m-15.16,10.48c-2.41,0-4.03-1.8-4.03-4.07s1.55-4.14,4.03-4.14c2.34,0,4,1.8,4,4.14s-1.66,4.07-4,4.07m6.34-10.4h-2.34v1.33c-1.08-.86-2.48-1.4-4-1.4-3.53,0-6.37,2.84-6.37,6.41s2.88,6.34,6.37,6.34c1.48,0,2.88-.58,4-1.51v2.63c0,2.23-1.22,4.18-3.96,4.18-2.95,0-3.82-2.09-3.82-4.14h-2.34c-.07,3.64,2.27,6.48,6.05,6.48,4.61,0,6.41-3.46,6.41-6.3v-14Zm-20.52,2.02c1.66,0,3.1.79,3.42,2.92h-6.98c.4-1.8,1.62-2.92,3.56-2.92m.25-2.09c-3.53,0-6.3,2.92-6.3,6.41s2.52,6.34,6.37,6.34c2.12,0,4.03-1.08,5.18-2.66l-1.76-1.33c-.72,1.04-1.87,1.73-3.42,1.73-2.56,0-3.82-1.51-4-3.56h9.4c.5-4.25-2.23-6.91-5.47-6.91m-8.82-11.02h-2.34v23.69h2.34v-23.69Zm-5.58,0h-2.34v23.69h2.34v-23.69Zm-11.2,13.28c2.34,0,4,1.8,4,4.14s-1.66,4.07-4,4.07-4.03-1.8-4.03-4.07,1.55-4.14,4.03-4.14m0-2.27c-3.53,0-6.37,2.84-6.37,6.41s2.88,6.34,6.37,6.34,6.34-2.99,6.34-6.34c0-3.56-2.81-6.41-6.34-6.41m-11.3,0c-3.6,0-6.44,2.84-6.44,6.41s2.88,6.34,6.44,6.34c1.26,0,2.48-.43,3.49-1.12v-2.95c-.65.97-1.91,1.8-3.49,1.8-2.48,0-4.1-1.8-4.1-4.07s1.55-4.14,4.1-4.14c1.58,0,2.84.83,3.49,1.87v-3.1c-1.01-.65-2.2-1.04-3.49-1.04"/>
          <path class="cls-7" d="m180.74,797.83c-1.94,0-3.71,1.3-3.71,3.46,0,1.87,1.15,2.77,2.7,3.56,2.34,1.19,2.81,1.4,2.81,2.27s-.86,1.3-1.84,1.3c-1.58,0-2.16-1.01-2.41-1.55l-2.05.9c.61,1.37,1.73,2.81,4.5,2.81,2.02,0,4.14-1.33,4.14-3.6s-1.69-3.02-3.42-3.82c-1.04-.54-2.09-.94-2.09-1.98,0-.65.5-1.26,1.37-1.26.47,0,.94.25,1.19.79l2.12-.79c-.5-1.15-1.37-2.09-3.31-2.09m-6.48.07h-10.91v12.6h2.34v-10.37h6.23v10.37h2.34v-12.6Zm-21.56,6.26c1.37,0,2.38,1.04,2.38,2.23s-1.01,2.23-2.38,2.23-2.34-1.04-2.34-2.23,1.01-2.23,2.34-2.23m0-2.05c-2.45,0-4.39,1.91-4.39,4.28s1.94,4.28,4.39,4.28,4.43-1.91,4.43-4.28-1.94-4.28-4.43-4.28m7.42,8.39v-12.6h-8.78l-1.08,2.23h7.52v10.37h2.34Zm-14.15-12.6h-19.01v12.6h2.34v-10.37h5.98v10.37h2.34v-10.37h6.01v10.37h2.34v-12.6Zm-28.3,5.51l5.22,7.09h2.81l-6.3-8.6,4.68-4h-3.06l-4.93,4.18v-15.26h-2.34v23.69h2.34v-5.76l1.58-1.33Zm-10.3-5.58c-3.6,0-6.44,2.84-6.44,6.41s2.88,6.34,6.44,6.34c1.26,0,2.48-.43,3.49-1.12v-2.95c-.65.97-1.91,1.8-3.49,1.8-2.48,0-4.1-1.8-4.1-4.07s1.55-4.14,4.1-4.14c1.58,0,2.84.83,3.49,1.87v-3.1c-1.01-.65-2.2-1.04-3.49-1.04m-14.08,2.09c1.66,0,3.1.79,3.42,2.92h-6.98c.4-1.8,1.62-2.92,3.56-2.92m.25-2.09c-3.53,0-6.3,2.92-6.3,6.41s2.52,6.34,6.37,6.34c2.12,0,4.03-1.08,5.18-2.66l-1.76-1.33c-.72,1.04-1.87,1.73-3.42,1.73-2.56,0-3.82-1.51-4-3.56h9.4c.5-4.25-2.23-6.91-5.47-6.91m-12.53,6.48c-1.33,0-2.34-1.04-2.34-2.23s1.01-2.23,2.34-2.23,2.38,1.04,2.38,2.23-1.01,2.23-2.38,2.23m0-6.52c-.86,0-1.66.25-2.34.65v-11.63h-2.34v23.69h2.34v-4.79c.68.4,1.48.65,2.34.65,2.48,0,4.43-1.91,4.43-4.28s-1.94-4.28-4.43-4.28"/>
        </g>
        <g class="cls-20">
          <rect class="cls-3" x="48.38" y="760.23" width="390.4" height="30.16"/>
        </g>
        <g class="cls-18">
          <rect class="cls-4" x="37.77" y="736.49" width="423.95" height="21.42"/>
        </g>
        <g class="cls-19">
          <rect class="cls-5" x="280.36" y="707.23" width="178.15" height="23.72"/>
        </g>
        <g class="cls-22">
          <path class="cls-7" d="m204.84,726.63c-.9,0-1.58.68-1.58,1.58s.68,1.55,1.58,1.55,1.55-.68,1.55-1.55-.68-1.58-1.55-1.58m1.15-2.27l.07-17.46h-2.45l.04,17.46h2.34Zm-11.09-5.44c1.66,0,3.1.79,3.42,2.92h-6.98c.4-1.8,1.62-2.92,3.56-2.92m.25-2.09c-3.53,0-6.3,2.92-6.3,6.41s2.52,6.34,6.37,6.34c2.12,0,4.03-1.08,5.18-2.66l-1.76-1.33c-.72,1.04-1.87,1.73-3.42,1.73-2.56,0-3.82-1.51-4-3.56h9.4c.5-4.25-2.23-6.91-5.47-6.91m-11.99.07h-2.34v12.6h2.34v-12.6Zm3.42-.11c-.97,0-1.73.76-1.73,1.73s.76,1.73,1.73,1.73,1.73-.76,1.73-1.73-.76-1.73-1.73-1.73m-14.62,2.3c2.34,0,4,1.8,4,4.14s-1.66,4.07-4,4.07-4.03-1.8-4.03-4.07,1.55-4.14,4.03-4.14m0-2.27c-3.53,0-6.37,2.84-6.37,6.41s2.88,6.34,6.37,6.34,6.34-2.99,6.34-6.34c0-3.56-2.81-6.41-6.34-6.41m-8.89.07h-19.01v12.6h2.34v-10.37h5.98v10.37h2.34v-10.37h6.01v10.37h2.34v-12.6Zm-35.21-.07c-1.3,0-2.52.25-3.71,1.04v-12.06h-2.34v23.69h2.34v-8.35c.5-1.33,1.87-2.23,3.38-2.23,2.02,0,3.02,1.26,3.02,2.48v8.1h2.34v-6.95c0-3.78-1.98-5.72-5.04-5.72m-12.42,0c-3.6,0-6.44,2.84-6.44,6.41s2.88,6.34,6.44,6.34c1.26,0,2.48-.43,3.49-1.12v-2.95c-.65.97-1.91,1.8-3.49,1.8-2.48,0-4.1-1.8-4.1-4.07s1.55-4.14,4.1-4.14c1.58,0,2.84.83,3.49,1.87v-3.1c-1.01-.65-2.2-1.04-3.49-1.04m-8.96.07h-2.23v7.42c0,2.16-1.4,3.13-3.13,3.13s-3.17-.97-3.17-3.13v-7.42h-2.34v7.42c0,3.28,2.3,5.26,5.33,5.26s5.54-1.98,5.54-5.26v-7.42Zm-14.11,0h-19.01v12.6h2.34v-10.37h5.98v10.37h2.34v-10.37h6.01v10.37h2.34v-12.6Zm-24.18,3.73h-5.61v5.64h-2.82v-5.64h-5.61v-2.79h5.61v-5.61h2.82v5.61h5.61v2.79Zm2.51,3.16v-4.12l-1.86-2.48h-3.75v-3.29l-1.86-2.32h-4.12v5.61h-5.61v4.25l1.86,2.36h3.75v3.29l1.86,2.32h4.12v-5.61h5.61Z"/>
          <path class="cls-7" d="m406.91,700.19h-5.08l-6.82-10.29v10.29h-4.8v-16.52h5.12l6.76,10.23v-10.23h4.84v16.52Zm2.79,3.32v-17.67l-2.36-2.88h-5.98v6.94l-2.17-3.29c-.37-.56-.65-1.15-1.09-1.64-.19-.22-.56-.43-.81-.62l-1.8-1.4h-6.01v17.98l2.14,2.57h6.17v-8.09l2.39,3.53c.37.59.74,1.21,1.18,1.77.25.34.56.62.84.93l1.64,1.86h5.86Zm-29.8-12.37c-.03.96-.06,1.92-.53,2.76-.56.96-1.64,1.61-2.76,1.61-.34,0-.68-.09-1.02-.15-.03-.22-.03-.43-.03-.65,0-1.77,1.24-3.72,3.16-3.72.4,0,.77.06,1.18.16m.71.77c0-2.29-1.58-4.18-3.94-4.18s-4,2.05-4,4.37c0,2.2,1.64,4.12,3.91,4.12s4.03-2.05,4.03-4.31m5.11.09c0,5.24-3.81,8.56-8.93,8.56s-9.24-3.35-9.24-8.74,4.03-8.62,9.05-8.62,9.11,3.47,9.11,8.8m2.88,2.54c0-1.39-.34-3.04-.96-4.31-.68-1.43-2.6-3.72-3.75-4.87-.84-.84-1.71-1.52-2.82-1.98-1.3-.56-3.07-.9-4.49-.9-5.61,0-9.73,3.88-9.73,9.55,0,2.98.99,4.74,2.85,6.94,1.18,1.43,2.48,2.98,4.15,3.81,1.52.74,3.26,1.09,4.96,1.09,5.39,0,9.8-3.78,9.8-9.33m-25.26,5.64h-5.15v-16.52h5.15v16.52Zm2.79,3.32v-17.92l-2.17-2.63h-6.48v17.98l2.08,2.57h6.57Zm-12.13-15.93h-3.6v12.62h-5.21v-12.62h-3.57v-3.91h12.37v3.91Zm2.6,2.79v-4.68l-2.23-2.73h-13.45v4.9l1.98,2.51h1.55v10.57l2.14,2.57h6.6v-13.14h3.41Zm-18.88,9.83h-5.15v-16.52h5.15v16.52Zm2.79,3.32v-17.92l-2.17-2.63h-6.48v17.98l2.08,2.57h6.57Zm-18-8.28c0,.81-.62,1.18-1.36,1.18h-.74v-2.05h.81c.4,0,.84.06,1.18.28.06.19.12.37.12.59m.77-.19c0-1.77-1.39-2.14-2.88-2.14h-2.48v4.34h2.48c1.52,0,2.88-.43,2.88-2.2m-1.33-6.39c0,1.02-.68,1.18-1.55,1.18v-2.01h.53c.37,0,.62.09.93.31.03.19.09.34.09.53m.68-.19c0-1.3-1.02-2.01-2.23-2.01h-2.48v4.03h2.23c1.3,0,2.48-.56,2.48-2.01m5.58,7.35c0,3.22-3.19,4.37-5.92,4.37h-8.37v-16.52h7.97c1.33,0,2.82.06,3.94.9.99.74,1.52,1.95,1.52,3.19,0,2.2-1.24,3.16-3.13,3.94,2.05.56,4,1.77,4,4.12m2.79,2.6c0-.96-.31-1.92-.93-2.67l-1.61-1.92c1.12-.84,1.74-1.92,1.74-3.32,0-2.14-1.46-3.94-2.82-5.43-1.49-1.64-3.04-2.14-5.21-2.14h-8.96v17.98l2.11,2.57h8.77c1.58,0,3.1-.12,4.49-.93,1.55-.9,2.42-2.36,2.42-4.15m-22.25,1.77h-5.15v-16.52h5.15v16.52Zm2.79,3.32v-17.92l-2.17-2.63h-6.48v17.98l2.08,2.57h6.57Zm-13.17-3.32h-5.15v-6.2h-5.43v6.2h-5.18v-16.52h5.18v5.89h5.43v-5.89h5.15v16.52Zm2.79,3.32v-17.95l-2.14-2.6h-6.51v5.92h-1.92v-3.32l-2.14-2.6h-6.54v17.98l2.08,2.57h6.6v-6.23h1.92v3.66l2.08,2.57h6.57Zm-22.56-3.32h-5.7l-3.04-5.11-3.01,5.11h-5.8l6.05-8.9-5.42-7.63h5.77l2.42,4.22,2.26-4.22h5.8l-5.39,7.63,6.08,8.9Zm4.5,3.32l-7.38-10.76,5.08-7.25-2.11-2.54h-6.98l-1.02,1.95-2.76-1.95h-7.47l5.8,8.34-6.54,9.64,2.17,2.57h7.04l2.51-4.37c.34.59.59,1.24.99,1.8.62.9,1.39,1.71,2.08,2.57h8.59Zm-25.89-3.32h-10.63v-16.52h10.63v3.5h-5.98v2.98h5.49v3.35h-5.49v3.19h5.98v3.5Zm2.85,3.32v-4l-2.67-3.41h2.11v-3.01l-2.79-3.44h3.35v-3.75l-2.39-2.94h-11.81v17.98l2.14,2.57h12.06Zm-26.29-15.93h-3.6v12.62h-5.21v-12.62h-3.56v-3.91h12.37v3.91Zm2.6,2.79v-4.68l-2.23-2.73h-13.45v4.9l1.98,2.51h1.55v10.57l2.14,2.57h6.6v-13.14h3.41Zm-18.93,9.83h-5.08l-6.82-10.29v10.29h-4.8v-16.52h5.11l6.76,10.23v-10.23h4.84v16.52Zm2.79,3.32v-17.67l-2.36-2.88h-5.98v6.94l-2.17-3.29c-.37-.56-.65-1.15-1.08-1.64-.19-.22-.56-.43-.81-.62l-1.8-1.4h-6.01v17.98l2.14,2.57h6.17v-8.09l2.39,3.53c.37.59.74,1.21,1.18,1.77.25.34.56.62.84.93l1.64,1.86h5.86Zm-24.59-3.32h-10.63v-16.52h10.63v3.5h-5.98v2.98h5.49v3.35h-5.49v3.19h5.98v3.5Zm2.85,3.32v-4l-2.67-3.41h2.11v-3.01l-2.79-3.44h3.35v-3.75l-2.39-2.94h-11.81v17.98l2.14,2.57h12.06Zm-23.71-11.44c0,1.12-.56,2.29-1.55,2.85-.25.15-.53.25-.81.34v-4.18c.22-.03.43-.03.65-.03.56,0,1.12.12,1.64.28.06.25.06.5.06.74m.68-.03c0-1.49-.68-3.07-2.08-3.75-.84-.4-1.8-.5-2.7-.5-.34,0-.71.03-1.05.06v8.28c.22.03.46.03.68.03.9,0,2.29-.15,3.1-.53,1.36-.62,2.05-2.14,2.05-3.6m5.15.19c0,2.45-.9,4.84-2.95,6.32-2.11,1.52-4.31,1.64-6.79,1.64h-6.42v-16.52h5.52c2.45,0,5.15.19,7.22,1.61,2.29,1.58,3.41,4.22,3.41,6.94m2.79,2.32c0-1.86-.4-3.22-1.3-4.87-.93-1.67-2.2-3.22-3.69-4.43-2.57-2.08-5.27-2.29-8.46-2.29h-6.2v17.98l2.14,2.57h7.75c5.64,0,9.77-3.01,9.77-8.96m-24.1-.62c0,4.62-3.13,6.7-7.47,6.7-2.26,0-4.93-.68-6.42-2.54-1.21-1.52-1.27-3.22-1.27-5.08v-9.33h5.18v9.33c0,1.67.43,3.32,2.45,3.32,1.77,0,2.39-1.46,2.39-3.01v-9.64h5.15v10.26Zm2.79-8.34l-2.08-2.63h-6.6v10.04c0,1.12.03,2.23-1.3,2.54v-9.95l-2.14-2.63h-6.54v10.69c0,1.12.03,2.2.46,3.26.74,1.8,2.7,4.28,4.28,5.43,1.55,1.15,4.03,1.58,5.92,1.58,4.99,0,8-2.7,8-7.78v-10.54Zm-21.82,1.98h-3.6v12.62h-5.21v-12.62h-3.56v-3.91h12.37v3.91Zm2.6,2.79v-4.68l-2.23-2.73h-13.45v4.9l1.98,2.51h1.55v10.57l2.14,2.57h6.6v-13.14h3.41Zm-17.85,4.49c0,3.91-3.69,5.74-7.16,5.74-2.32,0-4.12-.65-6.2-1.61l1.46-3.44c1.3.81,2.6,1.52,4.18,1.52,1.15,0,2.36-.56,2.36-1.86,0-1.49-1.77-1.55-2.85-1.77-2.57-.5-4.62-1.55-4.62-4.49,0-3.66,3.38-5.74,6.73-5.74,1.89,0,3.84.46,5.52,1.36l-1.33,3.29c-1.08-.65-2.32-1.12-3.6-1.12-.99,0-2.08.5-2.08,1.64,0,1.3,1.3,1.49,2.29,1.71,1.18.25,2.64.59,3.63,1.3,1.08.81,1.67,2.14,1.67,3.47m2.67,2.54c0-1.43-.31-2.08-1.05-3.26-1.67-2.6-2.94-3.94-6.14-4.4.31-.31.62-.43,1.05-.43,1.3,0,2.48.87,3.47,1.64l1.95-4.22-1.95-2.67c-1.95-1.02-3.94-1.58-6.14-1.58-3.72,0-7.41,2.45-7.41,6.45,0,2.2,1.58,4.22,3.16,5.61,1.18,1.05,2.01,1.33,3.53,1.71-.28.15-.5.15-.81.15-1.7,0-3.22-.9-4.53-1.92l-1.98,4.62,2.2,2.91c2.26,1.18,4.4,1.86,6.97,1.86,3.84,0,7.66-2.26,7.66-6.48m-21.41-3.76h-5.61v5.64h-2.82v-5.64h-5.61v-2.79h5.61v-5.61h2.82v5.61h5.61v2.79Zm2.51,3.16v-4.12l-1.86-2.48h-3.75v-3.29l-1.86-2.33h-4.12v5.61h-5.61v4.25l1.86,2.36h3.75v3.29l1.86,2.33h4.12v-5.61h5.61Z"/>
          <path class="cls-7" d="m479.46,675.2v-5.38c-.5.41-1.16.66-1.93.66-1.49,0-2.43-.91-2.43-2.15s.94-2.15,2.43-2.15c.77,0,1.44.25,1.93.66v-5.39c-1.05-.47-2.26-.75-3.54-.75-4.45,0-7.73,3.01-7.73,7.62s3.29,7.62,7.73,7.62c1.3,0,2.49-.25,3.54-.75m-19.25.3h6.9v-14.36h-6.9v14.36Zm3.48-15.66c2.13,0,3.81-1.68,3.81-3.81s-1.68-3.81-3.81-3.81-3.81,1.68-3.81,3.81,1.68,3.81,3.81,3.81m-11.18,16.1c4.17,0,6.63-2.51,6.63-5,0-2.18-1.41-3.76-4.53-4.58l-.55-.14c-.69-.17-.97-.28-.97-.66s.47-.58,1.05-.58c.77,0,1.6.25,2.49.72l.41.22,1.82-3.78-.44-.22c-1.63-.8-3.48-1.19-5.36-1.19-4.14,0-6.57,2.65-6.57,5.19,0,2.15,1.35,3.59,3.98,4.17l.55.14c1.08.25,1.46.41,1.46.83,0,.47-.47.64-1.11.64-.91,0-1.99-.33-3.15-1.02l-.47-.28-1.79,3.98.55.28c1.66.83,3.56,1.3,5.99,1.3m-15.27,0c2.73,0,4.89-.8,6.3-2.18,1.13-1.1,1.71-2.6,1.71-4.89v-7.73h-6.9v8.06c0,.94-.47,1.27-1.11,1.27s-1.1-.33-1.1-1.27v-8.06h-6.9v7.73c0,2.29.61,3.76,1.71,4.89,1.38,1.41,3.56,2.18,6.3,2.18m-10.99-13.59c-1.08-1.05-2.49-1.66-4.11-1.66-2.02,0-3.7.64-4.89,1.77-1.02-1.13-2.49-1.77-4.12-1.77-1.77,0-3.26.58-4.25,1.63v-1.19h-6.35v14.36h6.9v-7.65c0-.99.5-1.38,1.19-1.38s1.19.39,1.19,1.38v7.65h6.9v-7.65c0-.99.5-1.38,1.19-1.38s1.19.39,1.19,1.38v7.65h6.9v-8.39c0-2.15-.66-3.7-1.74-4.75m-46.56-1.22v14.36h6.9v-7.65c0-.99.5-1.38,1.19-1.38s1.19.39,1.19,1.38v7.65h6.9v-8.39c0-2.35-.63-3.81-1.66-4.83-.99-.99-2.4-1.57-3.92-1.57-1.77,0-3.23.58-4.25,1.63v-1.19h-6.35Zm-8.45,14.36h6.9v-14.36h-6.9v14.36Zm3.48-15.66c2.13,0,3.81-1.68,3.81-3.81s-1.68-3.81-3.81-3.81-3.81,1.68-3.81,3.81,1.68,3.81,3.81,3.81m-8.39,1.3h-7.1l-2.62,5.74-2.62-5.74h-7.1l6.1,13.73-3.23,7.1h7.32l9.25-20.82Zm-28.61,5.47v8.89h6.9v-8.89h2.32v-5.47h-2.32v-4.92h-6.9v4.92h-2.21v5.47h2.21Zm-10.3,8.89h6.9v-14.36h-6.9v14.36Zm3.48-15.66c2.13,0,3.81-1.68,3.81-3.81s-1.68-3.81-3.81-3.81-3.81,1.68-3.81,3.81,1.68,3.81,3.81,3.81m-13.89,6.77v8.89h6.9v-8.89h2.32v-5.47h-2.32v-4.92h-6.9v4.92h-2.21v5.47h2.21Zm-19.28-5.47v14.36h6.9v-7.65c0-.99.5-1.38,1.19-1.38s1.19.39,1.19,1.38v7.65h6.9v-8.39c0-2.35-.64-3.81-1.66-4.83-.99-.99-2.4-1.57-3.92-1.57-1.77,0-3.23.58-4.25,1.63v-1.19h-6.35Zm-9.33,3.84c.94,0,1.66.69,1.66,1.74h-3.31c0-1.02.72-1.74,1.66-1.74m-1.66,4.69h9.8c.06-.44.11-.88.11-1.35,0-4.61-3.51-7.62-8.26-7.62s-8.26,3.01-8.26,7.62,3.51,7.62,8.23,7.62c4.09,0,7.23-1.96,8.06-5.14l-6.21-.52c-.17.83-.91,1.38-1.85,1.38s-1.63-.72-1.63-1.79v-.19Zm-15.99.8c-1.08,0-1.77-.8-1.77-2.15s.69-2.15,1.77-2.15,1.77.8,1.77,2.15-.69,2.15-1.77,2.15m1.41-16.46v7.79c-.97-.72-2.15-1.11-3.48-1.11-3.81,0-6.6,3.01-6.6,7.62s2.79,7.62,6.6,7.62c1.57,0,2.98-.55,4.03-1.57v1.13h6.35v-21.49h-6.9Zm-18.09,21.49h6.9v-14.36h-6.9v14.36Zm3.48-15.66c2.13,0,3.81-1.68,3.81-3.81s-1.68-3.81-3.81-3.81-3.81,1.68-3.81,3.81,1.68,3.81,3.81,3.81m-17.18,15.66h6.9v-21.49h-6.9v21.49Zm-9.86-5.03c-1.08,0-1.77-.8-1.77-2.15s.69-2.15,1.77-2.15,1.77.8,1.77,2.15-.69,2.15-1.77,2.15m1.96-9.33v1.13c-1.05-1.02-2.46-1.57-4.03-1.57-3.81,0-6.6,3.01-6.6,7.62s2.79,7.62,6.6,7.62c1.57,0,2.98-.55,4.03-1.57v1.13h6.35v-14.36h-6.35Zm-19.58,14.8c2.73,0,4.89-.8,6.3-2.18,1.13-1.1,1.71-2.6,1.71-4.89v-7.73h-6.9v8.06c0,.94-.47,1.27-1.1,1.27s-1.11-.33-1.11-1.27v-8.06h-6.9v7.73c0,2.29.61,3.76,1.71,4.89,1.38,1.41,3.56,2.18,6.3,2.18m-15.55,0c4.17,0,6.63-2.51,6.63-5,0-2.18-1.41-3.76-4.53-4.58l-.55-.14c-.69-.17-.97-.28-.97-.66s.47-.58,1.05-.58c.77,0,1.6.25,2.49.72l.41.22,1.82-3.78-.44-.22c-1.63-.8-3.48-1.19-5.36-1.19-4.14,0-6.57,2.65-6.57,5.19,0,2.15,1.35,3.59,3.98,4.17l.55.14c1.08.25,1.46.41,1.46.83,0,.47-.47.64-1.1.64-.91,0-1.99-.33-3.15-1.02l-.47-.28-1.79,3.98.55.28c1.66.83,3.56,1.3,5.99,1.3m-14.33-.44h6.9v-14.36h-6.9v14.36Zm3.48-15.66c2.13,0,3.81-1.68,3.81-3.81s-1.68-3.81-3.81-3.81-3.81,1.68-3.81,3.81,1.68,3.81,3.81,3.81m-3.78,1.3h-7.21l-2.4,5.8-2.4-5.8h-7.21l6.02,14.36h7.18l6.02-14.36Zm-40.24,0v14.36h6.9v-7.65c0-.99.5-1.38,1.19-1.38s1.19.39,1.19,1.38v7.65h6.9v-8.39c0-2.35-.63-3.81-1.66-4.83s-2.4-1.57-3.92-1.57c-1.77,0-3.23.58-4.25,1.63v-1.19h-6.35Zm-9.75,9.33c-1.08,0-1.77-.8-1.77-2.15s.69-2.15,1.77-2.15,1.77.8,1.77,2.15-.69,2.15-1.77,2.15m0,5.47c5,0,8.67-3.01,8.67-7.62s-3.67-7.62-8.67-7.62-8.67,3.01-8.67,7.62,3.67,7.62,8.67,7.62m-21.9-.44h6.9v-21.49h-6.9v21.49Zm-9.33-10.52c.94,0,1.66.69,1.66,1.74h-3.31c0-1.02.72-1.74,1.66-1.74m-1.66,4.69h9.8c.05-.44.11-.88.11-1.35,0-4.61-3.51-7.62-8.26-7.62s-8.26,3.01-8.26,7.62,3.51,7.62,8.23,7.62c4.09,0,7.24-1.96,8.06-5.14l-6.21-.52c-.17.83-.91,1.38-1.85,1.38s-1.63-.72-1.63-1.79v-.19Zm-23.72-8.53v14.36h6.9v-7.65c0-.99.5-1.38,1.19-1.38s1.19.39,1.19,1.38v7.65h6.9v-8.39c0-2.35-.64-3.81-1.66-4.83-.99-.99-2.4-1.57-3.92-1.57-1.77,0-3.23.58-4.25,1.63v-1.19h-6.35Zm-9.86,9.33c-1.08,0-1.77-.8-1.77-2.15s.69-2.15,1.77-2.15,1.77.8,1.77,2.15-.69,2.15-1.77,2.15m1.96-9.33v1.13c-1.05-1.02-2.46-1.57-4.03-1.57-3.81,0-6.6,3.01-6.6,7.62s2.79,7.62,6.6,7.62c1.57,0,2.98-.55,4.03-1.57v1.13h6.35v-14.36h-6.35Zm-19.97,9.33c-1.08,0-1.77-.8-1.77-2.15s.69-2.15,1.77-2.15,1.77.8,1.77,2.15-.69,2.15-1.77,2.15m2.07-9.78c-1.57,0-2.98.55-4.03,1.57v-1.13h-6.35v20.82h6.9v-7.12c.97.72,2.15,1.1,3.48,1.1,3.81,0,6.6-3.01,6.6-7.62s-2.79-7.62-6.6-7.62m-14.66,5.94h-5.61v5.64h-2.82v-5.64h-5.61v-2.79h5.61v-5.61h2.82v5.61h5.61v2.79Zm2.51,3.16v-4.12l-1.86-2.48h-3.75v-3.29l-1.86-2.33h-4.12v5.61h-5.61v4.25l1.86,2.36h3.75v3.29l1.86,2.33h4.12v-5.61h5.61Z"/>
          <path class="cls-7" d="m421.51,183.8c0,4.92-5.54,6.89-9.64,6.89-3.24,0-7.3-.86-9.35-3.61-.86-1.15-1.11-2.17-1.39-3.53h6.93c.37,1.6,1.6,2.71,3.28,2.71s3.28-1.23,3.28-2.95c0-2.01-1.97-3.08-3.77-3.08-.16,0-.37,0-.53.04v-3.12c1.76-.04,3.49-.74,3.49-2.75,0-1.43-1.15-2.46-2.54-2.46-1.31,0-2.05.78-2.46,1.97h-6.64c.94-4.92,4.63-6.19,9.18-6.19,3.61,0,9.06,1.43,9.06,5.9,0,2.58-2.34,3.98-4.47,4.8,2.95.49,5.58,2.05,5.58,5.37m3.69,3.44c0-2.66-1.64-4.18-3.2-6.11,1.39-1.07,2.13-2.38,2.13-4.14,0-2.42-2.26-4.88-3.81-6.56-1.72-1.8-3.16-2.83-5.62-3.36-1.03-.2-2.09-.33-3.12-.33-5.37,0-10,1.97-10.41,7.95l2.87,3.61h5.33v4.3h-9.18c0,1.35.08,2.3.7,3.53.9,1.85,2.46,3.77,3.85,5.29,2.67,2.87,5.9,3.61,9.68,3.61,4.76,0,10.78-2.17,10.78-7.79m-28.92,2.87h-19.68l9.27-9.02c1.23-1.19,3.2-3.32,3.2-5.12,0-1.68-1.27-2.99-2.95-2.99-1.85,0-2.95,1.35-3.07,3.12h-6.44c.12-1.64.29-2.79,1.19-4.22,1.8-2.95,5.21-4.14,8.53-4.14,4.55,0,9.68,2.38,9.68,7.59,0,4.55-4.92,7.63-8.36,9.72h8.65v5.08Zm3.69,4.39v-6.85l-2.67-3.32c1.56-1.48,2.38-3.53,2.38-5.66,0-1.76-.57-2.99-1.52-4.47-2.91-4.51-6.23-7.46-11.85-7.46-3.9,0-7.83,1.72-9.64,5.33-.82,1.64-.98,3.08-1.02,4.88l2.83,3.48h6.11c0-1.15-.04-2.46,1.48-2.46.37,0,.74.12,1.07.33-.53.78-1.15,1.48-1.8,2.13l-9.68,9.27v1.39l2.83,3.4h21.48Zm-35.39-15.21c0,1.93-.45,4.67-2.79,5-.08-.66-.16-1.27-.16-1.93,0-1.89.45-4.76,2.79-5.04.08.66.16,1.31.16,1.97m.9-.04c0-2.38-.7-6.27-3.77-6.27s-3.81,3.9-3.81,6.31.82,5.95,3.81,5.95,3.77-3.61,3.77-5.99m6.64.21c0,6.03-3.98,11.19-10.29,11.19s-10.5-4.84-10.5-11.07,3.57-11.97,10.37-11.97,10.41,5.58,10.41,11.85m3.69,3.36c0-2.05-.33-4.18-1.19-6.07-.94-2.05-3.24-5.04-4.88-6.64-2.3-2.26-4.76-3.4-7.99-3.4-7.3,0-11.36,5.66-11.36,12.55,0,2.17.29,4.3,1.27,6.27,1.03,2.05,3.94,5.54,5.7,7.05,1.97,1.72,4.63,2.42,7.22,2.42,7.05,0,11.23-5.45,11.23-12.18m-29.45,7.3h-19.68l9.27-9.02c1.23-1.19,3.2-3.32,3.2-5.12,0-1.68-1.27-2.99-2.95-2.99-1.85,0-2.95,1.35-3.07,3.12h-6.44c.12-1.64.29-2.79,1.19-4.22,1.8-2.95,5.21-4.14,8.53-4.14,4.55,0,9.68,2.38,9.68,7.59,0,4.55-4.92,7.63-8.36,9.72h8.65v5.08Zm3.69,4.39v-6.85l-2.67-3.32c1.56-1.48,2.38-3.53,2.38-5.66,0-1.76-.57-2.99-1.52-4.47-2.91-4.51-6.23-7.46-11.85-7.46-3.9,0-7.83,1.72-9.64,5.33-.82,1.64-.98,3.08-1.02,4.88l2.83,3.48h6.11c0-1.15-.04-2.46,1.48-2.46.37,0,.74.12,1.07.33-.53.78-1.15,1.48-1.8,2.13l-9.68,9.27v1.39l2.83,3.4h21.48Zm-39.2-9.47l-4.67,10.04h-4.59l3.2-10.04h6.07Zm3.36,2.67l-2.99-3.61h-7.09l-3.73,11.89,2.79,3.48h5.54l5.49-11.77Zm-27.25-7.42h-2.5l2.5-3.32v3.32Zm.82.9v-9.84l-7.26,9.84h7.26Zm8.53,4.3h-2.71v4.63h-6.27v-4.63h-11.64v-5.21l8.9-11.89,9.02-.12v12.91h2.71v4.3Zm3.69,4.39v-6.11l-2.71-3.48v-9.14l-2.87-3.81-10.21.12-9.47,12.83v5.78l2.99,3.81h8.77v1.23l2.91,3.4h7.87v-4.63h2.71Zm-29.97.25h-6.72v-16.48l-3.65.25v-5.62h6.35c1.35,0,2.67-.12,4.02-.12v21.98Zm3.69,4.39v-23.86l-2.75-3.48c-4.1.16-8.16.16-12.26.16v7.54l2.75,3.44h.86v12.79l2.83,3.4h8.57Zm-41-18.41c0,1.52-1.11,1.72-2.38,1.76v-2.99c.16,0,.33-.04.49-.04.57,0,1.15,0,1.64.29.16.29.25.66.25.98m.98-.33c0-2.3-1.72-3.03-3.73-3.03h-2.62v5.99h2.46c1.97,0,3.9-.66,3.9-2.95m7.17,14.35h-6.93l-6.6-9.88v9.88h-5.74v-21.85h9.43c2.13,0,4.55.25,6.36,1.43,1.85,1.23,2.91,3.48,2.91,5.7,0,3.2-1.93,4.88-4.88,5.62l5.45,9.1Zm5.25,4.39l-5.78-9.76c2.38-1.23,3.65-3.2,3.65-5.9,0-3.44-2.66-7.01-5.17-9.18-2.26-1.97-4.92-2.34-7.79-2.34h-10.37v23.78l2.87,3.4h7.5v-7.34c.7,1.19,1.35,2.42,2.13,3.53.94,1.35,2.09,2.54,3.12,3.81h9.84Zm-31.22-4.39h-14.06v-21.85h14.06v4.63h-7.91v3.94h7.26v4.43h-7.26v4.22h7.91v4.63Zm3.77,4.39v-5.29l-3.53-4.51h2.79v-3.98l-3.69-4.55h4.43v-4.96l-3.16-3.89h-15.62v23.78l2.83,3.4h15.95Zm-31.11-10.95c0,1.07-.82,1.56-1.8,1.56h-.98v-2.71h1.07c.53,0,1.11.08,1.56.37.08.25.16.49.16.78m1.02-.25c0-2.34-1.85-2.83-3.81-2.83h-3.28v5.74h3.28c2.01,0,3.81-.57,3.81-2.91m-1.76-8.45c0,1.35-.9,1.56-2.05,1.56v-2.66h.7c.49,0,.82.12,1.23.41.04.25.12.45.12.7m.9-.25c0-1.72-1.35-2.66-2.95-2.66h-3.28v5.33h2.95c1.72,0,3.28-.74,3.28-2.67m7.38,9.72c0,4.26-4.22,5.78-7.83,5.78h-11.07v-21.85h10.54c1.76,0,3.73.08,5.21,1.19,1.31.98,2.01,2.58,2.01,4.22,0,2.91-1.64,4.18-4.14,5.21,2.71.74,5.29,2.34,5.29,5.45m3.69,3.44c0-1.27-.41-2.54-1.23-3.53l-2.13-2.54c1.48-1.11,2.3-2.54,2.3-4.39,0-2.83-1.93-5.21-3.73-7.17-1.97-2.17-4.02-2.83-6.89-2.83h-11.85v23.78l2.79,3.4h11.6c2.09,0,4.1-.16,5.94-1.23,2.05-1.19,3.2-3.12,3.2-5.49m-36.18-9.64c-.04,1.27-.08,2.54-.7,3.65-.74,1.27-2.17,2.13-3.65,2.13-.45,0-.9-.12-1.35-.21-.04-.29-.04-.57-.04-.86,0-2.34,1.64-4.92,4.18-4.92.53,0,1.03.08,1.56.21m.94,1.03c0-3.03-2.09-5.54-5.21-5.54s-5.29,2.71-5.29,5.78c0,2.91,2.17,5.45,5.17,5.45s5.33-2.71,5.33-5.7m6.76.12c0,6.93-5.04,11.32-11.81,11.32s-12.22-4.43-12.22-11.56,5.33-11.4,11.97-11.4,12.05,4.59,12.05,11.64m3.81,3.36c0-1.84-.45-4.02-1.27-5.7-.9-1.89-3.44-4.92-4.96-6.44-1.11-1.11-2.26-2.01-3.73-2.62-1.72-.74-4.06-1.19-5.94-1.19-7.42,0-12.87,5.12-12.87,12.63,0,3.94,1.31,6.27,3.77,9.18,1.56,1.89,3.28,3.94,5.49,5.04,2.01.98,4.31,1.43,6.56,1.43,7.13,0,12.96-5,12.96-12.34m-32.11-9.22h-4.76v16.69h-6.89v-16.69h-4.71v-5.17h16.36v5.17Zm3.44,3.69v-6.19l-2.95-3.61h-17.79v6.48l2.62,3.32h2.05v13.98l2.83,3.4h8.73v-17.38h4.51Zm-24.92,12.96c-1.56.37-3.12.57-4.71.57-6.93,0-12.05-4.22-12.05-11.4,0-6.81,4.88-11.56,11.64-11.56,1.76,0,3.49.33,5.12.86v6.44c-1.27-.78-2.42-1.31-3.98-1.31-3.16,0-5.78,2.42-5.78,5.62s2.67,5.53,5.86,5.53c1.6,0,2.54-.41,3.89-1.19v6.44Zm3.69-4.8l-2.62-3.4c-1.48,1.19-3.12,2.05-5.08,2.05-.74,0-1.43-.21-2.09-.45-.04-.25-.04-.49-.04-.74,0-2.62,2.05-4.63,4.67-4.63,1.8,0,3.81,1.11,5.17,2.21v-9.14l-2.62-3.32c-1.97-.66-4.02-1.15-6.11-1.15-7.3,0-12.67,5.37-12.67,12.67,0,3.36,1.03,5.7,2.91,8.41,1.03,1.43,2.09,2.87,3.44,4.06,2.79,2.46,5.41,3.2,9.06,3.2,2.17,0,3.94-.33,5.99-1.03v-8.73Zm-32.75-7.13c-.04,1.27-.08,2.54-.7,3.65-.74,1.27-2.17,2.13-3.65,2.13-.45,0-.9-.12-1.35-.21-.04-.29-.04-.57-.04-.86,0-2.34,1.64-4.92,4.18-4.92.53,0,1.03.08,1.56.21m.94,1.03c0-3.03-2.09-5.54-5.21-5.54s-5.29,2.71-5.29,5.78c0,2.91,2.17,5.45,5.17,5.45s5.33-2.71,5.33-5.7m6.76.12c0,6.93-5.04,11.32-11.81,11.32s-12.22-4.43-12.22-11.56,5.33-11.4,11.97-11.4,12.05,4.59,12.05,11.64m3.81,3.36c0-1.84-.45-4.02-1.27-5.7-.9-1.89-3.44-4.92-4.96-6.44-1.11-1.11-2.25-2.01-3.73-2.62-1.72-.74-4.06-1.19-5.94-1.19-7.42,0-12.87,5.12-12.87,12.63,0,3.94,1.31,6.27,3.77,9.18,1.56,1.89,3.28,3.94,5.49,5.04,2.01.98,4.31,1.43,6.56,1.43,7.13,0,12.96-5,12.96-12.34"/>
          <path class="cls-7" d="m462.9,158.89l11.12-20.99h-2.41l-4.32,8.35-3.96-8.35h-2.59l5.29,10.58-5.33,10.4h2.2Zm-2.99-18.94v-2.05h-1.66v-5.26h-2.34v5.26h-1.4v2.05h1.4v10.55h2.34v-10.55h1.66Zm-8.28-2.05h-2.34v12.6h2.34v-12.6Zm-1.19-7.85c-.86,0-1.55.68-1.55,1.51s.68,1.55,1.55,1.55,1.51-.68,1.51-1.55-.68-1.51-1.51-1.51m-4.03,9.9v-2.05h-1.66v-5.26h-2.34v5.26h-1.4v2.05h1.4v10.55h2.34v-10.55h1.66Zm-8.28-2.05h-10.91v12.6h2.34v-10.37h6.23v10.37h2.34v-12.6Zm-19.26,2.02c1.66,0,3.1.79,3.42,2.92h-6.98c.4-1.8,1.62-2.92,3.56-2.92m.25-2.09c-3.53,0-6.3,2.92-6.3,6.41s2.52,6.34,6.37,6.34c2.12,0,4.03-1.08,5.18-2.66l-1.76-1.33c-.72,1.04-1.87,1.73-3.42,1.73-2.56,0-3.82-1.51-4-3.56h9.4c.5-4.25-2.23-6.91-5.47-6.91m-14.08,8.21c-1.8,0-2.99-1.33-2.99-2.95s1.15-3.02,2.99-3.02c1.55,0,2.7,1.08,2.92,2.52v.97c-.22,1.4-1.37,2.48-2.92,2.48m5.26-19.22h-2.34v11.88c-.83-.54-1.84-.86-2.92-.86-2.99,0-5.29,2.3-5.29,5.26s2.34,5.15,5.29,5.15c1.08,0,2.09-.36,2.92-.94v3.2h2.34v-23.69Zm-13.1,11.09h-2.34v12.6h2.34v-12.6Zm-1.19-7.85c-.86,0-1.55.68-1.55,1.51s.68,1.55,1.55,1.55,1.51-.68,1.51-1.55-.68-1.51-1.51-1.51m-14.47-3.24h-2.34v23.69h2.34v-23.69Zm-12.24,21.85c-1.33,0-2.34-1.04-2.34-2.23s1.01-2.23,2.34-2.23,2.38,1.04,2.38,2.23-1.01,2.23-2.38,2.23m6.66-10.76h-9.79v2.23h7.45v5.33c-.43-1.91-2.2-3.31-4.32-3.31-2.45,0-4.39,1.91-4.39,4.28s1.94,4.28,4.39,4.28c2.12,0,3.89-1.4,4.32-3.31v3.1h2.34v-12.6Zm-13.03,0h-2.23v7.42c0,2.16-1.4,3.13-3.13,3.13s-3.17-.97-3.17-3.13v-7.42h-2.34v7.42c0,3.28,2.3,5.26,5.33,5.26s5.54-1.98,5.54-5.26v-7.42Zm-16.99-.07c-1.94,0-3.71,1.3-3.71,3.46,0,1.87,1.15,2.77,2.7,3.56,2.34,1.19,2.81,1.4,2.81,2.27s-.86,1.3-1.84,1.3c-1.58,0-2.16-1.01-2.41-1.55l-2.05.9c.61,1.37,1.73,2.81,4.5,2.81,2.02,0,4.14-1.33,4.14-3.6s-1.69-3.02-3.42-3.82c-1.04-.54-2.09-.94-2.09-1.98,0-.65.5-1.26,1.37-1.26.47,0,.94.25,1.19.79l2.12-.79c-.5-1.15-1.37-2.09-3.31-2.09m-6.48.07h-2.34v12.6h2.34v-12.6Zm-1.19-7.85c-.86,0-1.55.68-1.55,1.51s.68,1.55,1.55,1.55,1.51-.68,1.51-1.55-.68-1.51-1.51-1.51m-9.68,20.66l6.73-12.82h-2.41l-4.32,8.35-3.96-8.35h-2.59l6.55,12.82Zm-16.99-12.82h-10.91v12.6h2.34v-10.37h6.23v10.37h2.34v-12.6Zm-19.76,2.2c2.34,0,3.99,1.8,3.99,4.14s-1.66,4.07-3.99,4.07-4.03-1.8-4.03-4.07,1.55-4.14,4.03-4.14m0-2.27c-3.53,0-6.37,2.84-6.37,6.41s2.88,6.34,6.37,6.34,6.34-2.99,6.34-6.34c0-3.56-2.81-6.41-6.34-6.41m-28.79,12.67h12.53v-2h-5.13v-19.76h-7.4v2h5.13v17.77h-5.13v2Zm-14.09-4.48c0-.78.65-1.32,1.32-1.32s1.32.54,1.32,1.32-.62,1.32-1.32,1.32-1.32-.57-1.32-1.32m-3.51,0c0,2.67,2.16,4.81,4.83,4.81s4.83-2.13,4.83-4.81-2.16-4.81-4.83-4.81-4.83,2.13-4.83,4.81m15.42-9.5h-11.69l-2.7,3.94h9.37v10.04h5.02v-13.99Zm-22.7,14.61l6.91-13.31h-1.13l-5.75,11.15-5.78-11.15h-1.16l6.91,13.31Zm-20.21-.62h13.82v-3.29h-4.86v-10.26h-8.96v3.29h4.86v6.97h-4.86v3.29Zm6.51-16.17c1.46,0,2.7-1.16,2.7-2.65s-1.24-2.7-2.7-2.7-2.7,1.19-2.7,2.7,1.22,2.65,2.7,2.65m-22.61,4.97h5.89v11.2h1.67v-11.2h5.89v-1.49h-5.89v-4.59h-1.67v4.59h-5.89v1.49Zm-13.62,7.86c1,2.38,3.35,3.67,6.13,3.67,2.97,0,5.21-1.7,5.21-4.08,0-4.99-8.67-2.4-8.67-5.59,0-1.35,1.24-2.24,3.05-2.24s3,.73,3.59,2.05l1.54-.65c-.78-1.65-2.4-2.84-5.02-2.84-2.84,0-4.75,1.62-4.75,3.78,0,4.83,8.61,1.97,8.61,5.53,0,1.57-1.54,2.59-3.51,2.59s-3.94-1.03-4.62-2.89l-1.57.65Zm-8.7-7.18c1.73,0,2.65,1.11,2.84,2.27h-5.91c.49-1.43,1.67-2.27,3.08-2.27m.08,7.51c-1.59,0-2.92-1-3.29-2.7h9.96c.27-4.7-2.38-8.15-6.78-8.15-3.73,0-6.99,3-6.99,7.1s3.27,7.1,7.1,7.1c2.62,0,4.86-1.19,6.16-3.32l-2.89-2c-.78,1.22-1.67,1.97-3.27,1.97m-22.25-8.72h6.18v11.74h1.08v-11.74h6.16v-.95h-6.16v-3.62c0-2.89,1.73-4.72,4.24-4.72.78,0,1.35.11,1.92.3v-1.03c-.49-.16-1.13-.3-1.89-.3-3.13,0-5.35,2.43-5.35,5.72v3.64h-6.18v.95Zm-22.99,18.58h3.35l10.45-19.95h-3.4l-3.92,7.51-4.1-7.51h-3.56l5.97,10.77-4.78,9.18Zm-13.92-13.39c0-2.35,1.67-4.05,3.86-4.05s3.81,1.7,3.81,4.05-1.62,4.05-3.81,4.05-3.86-1.7-3.86-4.05m7.53-6.56v1.73c-.78-1.21-2.4-2.05-4.24-2.05-3.65,0-6.45,3.02-6.45,6.89s2.81,6.89,6.45,6.89c1.84,0,3.46-.84,4.24-2.05v1.73h3.19v-13.12h-3.19Zm-25.22,6.78c0-2.89,2.16-5.1,4.97-5.1s4.91,2.21,4.91,5.1-2.13,5.1-4.91,5.1-4.97-2.21-4.97-5.1m9.77-15.42v11.8c-.81-1.81-2.81-3.05-5.02-3.05-3.62,0-6.43,2.97-6.43,6.67s2.81,6.67,6.43,6.67c2.21,0,4.21-1.27,5.02-3.05v2.73h1.67v-21.76h-1.67Zm-27.63,11.02c1.97,0,3.08,1.27,3.32,2.73h-6.91c.51-1.65,1.94-2.73,3.59-2.73m.05,8.32c-1.89,0-3.51-1.35-3.81-3.43h10.21c.14-4.62-2.54-7.59-6.45-7.59-3.65,0-6.75,3-6.75,6.89s3.1,6.89,6.8,6.89c2.54,0,4.75-1.24,6.02-3.51l-2.35-1.51c-.84,1.46-1.84,2.27-3.67,2.27m-14.26-5.29v7.72h5.02v-9.13c0-3.19-1.97-5.18-5.1-5.18-1.54,0-2.81.59-3.59,1.38v-1.05h-5.02v13.99h5.02v-7.72c0-1.11.62-2.08,1.84-2.08s1.84.97,1.84,2.08m-23.33,1.38c0-3.19,2.48-5.64,5.53-5.64s5.54,2.46,5.54,5.64-2.48,5.64-5.54,5.64-5.53-2.46-5.53-5.64m-1.05,0c0,3.67,2.94,6.67,6.59,6.67s6.59-3,6.59-6.67-2.94-6.67-6.59-6.67-6.59,3-6.59,6.67m-15.61,4.18c-1.15,0-2.12-.9-2.12-2.2s.97-2.2,2.12-2.2,2.12.9,2.12,2.2-.97,2.2-2.12,2.2m4.46-10.44h-6.77l-1.08,2.23h5.51v2.23c-.61-.32-1.33-.5-2.12-.5-2.63,0-4.54,1.91-4.54,4.28s1.91,4.28,4.54,4.28c.79,0,1.51-.18,2.12-.5v.58h2.34v-12.6Z"/>
          <path class="cls-7" d="m471.95,105.93c0,7.94-7.5,11.66-14.55,11.66-4.73,0-8.38-1.32-12.6-3.28l2.96-6.99c2.65,1.64,5.29,3.09,8.51,3.09,2.33,0,4.79-1.13,4.79-3.78,0-3.02-3.59-3.15-5.8-3.59-5.23-1.01-9.39-3.15-9.39-9.14,0-7.43,6.87-11.66,13.67-11.66,3.84,0,7.81.95,11.21,2.77l-2.71,6.68c-2.21-1.32-4.72-2.27-7.31-2.27-2.02,0-4.22,1.01-4.22,3.34,0,2.65,2.65,3.02,4.66,3.47,2.39.5,5.35,1.2,7.37,2.65,2.2,1.64,3.4,4.35,3.4,7.06m5.42,5.17c0-2.9-.63-4.22-2.14-6.61-3.4-5.29-5.98-8-12.47-8.95.63-.63,1.26-.88,2.14-.88,2.65,0,5.04,1.76,7.06,3.34l3.97-8.57-3.97-5.42c-3.97-2.08-8-3.21-12.47-3.21-7.56,0-15.06,4.98-15.06,13.1,0,4.47,3.21,8.57,6.43,11.4,2.39,2.14,4.09,2.71,7.18,3.47-.57.32-1.01.32-1.64.32-3.47,0-6.55-1.83-9.2-3.91l-4.03,9.39,4.47,5.92c4.6,2.39,8.95,3.78,14.17,3.78,7.81,0,15.56-4.6,15.56-13.17m-40.97,5.67h-21.61v-33.58h21.61v7.12h-12.16v6.05h11.15v6.8h-11.15v6.49h12.16v7.12Zm5.8,6.74v-8.13l-5.42-6.93h4.28v-6.11l-5.67-6.99h6.8v-7.62l-4.85-5.98h-24v36.54l4.35,5.23h24.51Zm-36.56-6.74h-10.46v-33.58h10.46v33.58Zm5.67,6.74v-36.41l-4.41-5.35h-13.17v36.54l4.22,5.23h13.36Zm-24.48-32.38h-7.31v25.64h-10.58v-25.64h-7.24v-7.94h25.14v7.94Zm5.29,5.67v-9.51l-4.54-5.54h-27.34v9.95l4.03,5.1h3.15v21.48l4.35,5.23h13.42v-26.71h6.93Zm-39.45,19.97h-10.46v-33.58h10.46v33.58Zm5.67,6.74v-36.41l-4.41-5.35h-13.17v36.54l4.22,5.23h13.36Zm-24.48-32.38h-7.31v25.64h-10.58v-25.64h-7.24v-7.94h25.14v7.94Zm5.29,5.67v-9.51l-4.54-5.54h-27.34v9.95l4.03,5.1h3.15v21.48l4.35,5.23h13.42v-26.71h6.93Zm-38.29,19.97h-10.33l-13.86-20.92v20.92h-9.77v-33.58h10.4l13.73,20.79v-20.79h9.83v33.58Zm5.67,6.74v-35.91l-4.79-5.86h-12.16v14.11l-4.41-6.68c-.76-1.13-1.32-2.33-2.21-3.34-.38-.44-1.13-.88-1.64-1.26l-3.65-2.83h-12.22v36.54l4.35,5.23h12.54v-16.44l4.85,7.18c.76,1.2,1.51,2.46,2.39,3.59.5.69,1.13,1.26,1.7,1.89l3.34,3.78h11.91Zm-48.6-6.74h-21.61v-33.58h21.61v7.12h-12.16v6.05h11.15v6.8h-11.15v6.49h12.16v7.12Zm5.79,6.74v-8.13l-5.42-6.93h4.28v-6.11l-5.67-6.99h6.8v-7.62l-4.85-5.98h-24v36.54l4.35,5.23h24.51Zm-48.02-23.25c0,2.27-1.13,4.66-3.15,5.8-.5.32-1.07.5-1.64.69v-8.51c.44-.06.88-.06,1.32-.06,1.13,0,2.27.25,3.34.57.13.5.13,1.01.13,1.51m1.39-.06c0-3.02-1.39-6.24-4.22-7.62-1.7-.82-3.65-1.01-5.48-1.01-.69,0-1.45.06-2.14.13v16.82c.44.06.95.06,1.39.06,1.83,0,4.66-.31,6.3-1.07,2.77-1.26,4.16-4.35,4.16-7.31m10.46.38c0,4.98-1.83,9.83-5.99,12.85-4.28,3.09-8.76,3.34-13.8,3.34h-13.04v-33.58h11.21c4.98,0,10.46.38,14.68,3.28,4.66,3.21,6.93,8.57,6.93,14.11m5.67,4.72c0-3.78-.82-6.55-2.65-9.89-1.89-3.4-4.47-6.55-7.5-9.01-5.23-4.22-10.71-4.66-17.2-4.66h-12.6v36.54l4.35,5.23h15.75c11.47,0,19.85-6.11,19.85-18.21m-47.65,11.47h-10.46v-33.58h10.46v33.58Zm5.67,6.74v-36.41l-4.41-5.35h-13.17v36.54l4.22,5.23h13.36Zm-42.15-40.32l-10.4,33.58h-10.65l-5.67-22.43-5.67,22.43h-10.58l-10.14-33.58h10.14l5.8,21.86,6.36-21.86h8.57l6.05,21.86,5.8-21.86h10.4Zm5.98,4.73l-5.04-6.17h-12.41l-3.78,14.05-2.77-10.14-3.97-3.91h-9.89l-4.03,14.05-2.52-10.14-4.16-3.91h-12.35l10.84,36.54,4.28,5.23h12.22l3.4-13.61,1.95,8.38,4.41,5.23h12.85l10.96-35.59Zm-65.87,28.85h-21.61v-33.58h21.61v7.12h-12.16v6.05h11.15v6.8h-11.15v6.49h12.16v7.12Zm5.8,6.74v-8.13l-5.42-6.93h4.28v-6.11l-5.67-6.99h6.8v-7.62l-4.85-5.98h-24v36.54l4.35,5.23h24.51Zm-36.67-6.74h-10.33l-13.86-20.92v20.92h-9.76v-33.58h10.39l13.73,20.79v-20.79h9.83v33.58Zm5.67,6.74v-35.91l-4.79-5.86h-12.16v14.11l-4.41-6.68c-.76-1.13-1.32-2.33-2.2-3.34-.38-.44-1.13-.88-1.64-1.26l-3.65-2.83h-12.22v36.54l4.35,5.23h12.54v-16.44l4.85,7.18c.76,1.2,1.51,2.46,2.39,3.59.5.69,1.13,1.26,1.7,1.89l3.34,3.78h11.91Z"/>
          <path class="cls-7" d="m447.63,65.72c-1.63,0-2.76-1.24-2.76-2.9,0-1.93,1.33-3.34,3.15-3.34,1.6,0,2.76,1.24,2.76,2.87,0,1.96-1.32,3.37-3.15,3.37m-.19,4.2c4.5,0,8.15-3.37,8.15-7.73,0-3.84-3.12-6.9-7.37-6.9-4.5,0-8.15,3.37-8.15,7.76,0,3.81,3.12,6.88,7.37,6.88m-15.19-10.49l-1.33,10.08h4.64l1.33-10.08h3.09l.5-3.73h-3.09l.63-4.69h-4.64l-.64,4.69h-2.62l-.5,3.73h2.62Zm-22.4-3.73l-1.02,7.51c-.08.66-.11,1.05-.11,1.38,0,1.35.41,2.32,1.11,3.12,1.21,1.41,3.31,2.24,5.44,2.24s3.87-.75,5.08-1.96c.91-.91,1.55-2.02,1.77-3.73l1.16-8.56h-4.64l-1.05,7.79c-.14.97-.33,1.35-.61,1.66-.36.39-.99.61-1.66.61-.5,0-1.16-.14-1.6-.66-.22-.25-.39-.55-.39-1.13,0-.19.03-.44.11-1.02l1.05-7.23h-4.64Zm-10.66,10.02c-1.63,0-2.76-1.24-2.76-2.9,0-1.93,1.33-3.34,3.15-3.34,1.6,0,2.76,1.24,2.76,2.87,0,1.96-1.33,3.37-3.15,3.37m-.19,4.2c4.5,0,8.15-3.37,8.15-7.73,0-3.84-3.12-6.9-7.37-6.9-4.5,0-8.15,3.37-8.15,7.76,0,3.81,3.12,6.88,7.37,6.88m-6.27-14.22h-5.14l-4.06,6.63h-.06l-2.68-6.63h-4.97l4.81,11.05-6.19,9.78h5.11l13.17-20.82Zm-29.85,8.51c1.41.47,2.1.74,2.1,1.24,0,.55-.58.77-1.3.77-1.08,0-2.02-.41-3.04-1.41l-2.51,2.93c1.46,1.38,3.4,2.21,5.69,2.21,3.43,0,5.86-2.02,5.86-4.8,0-2.43-1.82-3.67-3.56-4.31-1.44-.55-1.99-.72-1.99-1.19,0-.5.58-.74,1.27-.74.94,0,1.77.41,2.49,1.27l2.32-2.68c-1.21-1.38-3.09-2.24-5.16-2.24-3.07,0-5.6,1.85-5.6,4.67,0,2.46,1.41,3.59,3.45,4.28m-14.83-3.34c.28-1.16,1.35-2.02,2.68-2.02s2.26.86,2.4,2.02h-5.08Zm2.18,9.09c2.9,0,5.27-1.38,6.66-3.48l-3.45-1.9c-.52.94-1.57,1.52-2.79,1.52-1.55,0-2.68-.94-2.79-2.29h9.64c.11-.52.17-1.08.17-1.66,0-3.98-2.76-6.88-6.68-6.88-4.53,0-7.68,3.31-7.68,7.84,0,3.98,2.9,6.85,6.93,6.85m-30.18-14.25l-1.82,13.81h4.64l1.27-9.66h4.14l-1.27,9.66h4.64l1.27-9.66h4.09l-1.27,9.66h4.64l1.82-13.81h-22.15Zm-10.85,10.02c-1.63,0-2.76-1.24-2.76-2.9,0-1.93,1.33-3.34,3.15-3.34,1.6,0,2.76,1.24,2.76,2.87,0,1.96-1.33,3.37-3.15,3.37m-.19,4.2c4.5,0,8.15-3.37,8.15-7.73,0-3.84-3.12-6.9-7.37-6.9-4.5,0-8.15,3.37-8.15,7.76,0,3.81,3.12,6.88,7.37,6.88m-9.64-.36l.61-4.42c-.61.41-1.35.66-2.15.66-1.71,0-3.2-1.1-3.2-2.93,0-1.93,1.41-3.34,3.37-3.34,1.08,0,1.99.39,2.6.99l.61-4.42c-.99-.52-2.15-.83-3.42-.83-4.72,0-7.95,3.73-7.95,7.84,0,3.76,2.98,6.79,7.04,6.79.88,0,1.74-.11,2.51-.36m-14.25-21.54l-2.84,21.48h4.64l2.85-21.48h-4.64Zm-13.48,12.84c.28-1.16,1.35-2.02,2.68-2.02s2.26.86,2.4,2.02h-5.08Zm2.18,9.09c2.9,0,5.27-1.38,6.66-3.48l-3.45-1.9c-.52.94-1.57,1.52-2.79,1.52-1.55,0-2.68-.94-2.79-2.29h9.64c.11-.52.17-1.08.17-1.66,0-3.98-2.76-6.88-6.68-6.88-4.53,0-7.68,3.31-7.68,7.84,0,3.98,2.9,6.85,6.93,6.85m-6.16-14.25h-5.03l-3.67,7.18-1.93-7.18h-3.37l-3.81,7.18-1.74-7.18h-4.75l3.7,13.81h3.76l3.89-7.29,1.96,7.29h3.65l7.34-13.81Zm-34.52,1.21h-10.91v12.6h2.34v-10.37h6.23v10.37h2.34v-12.6Zm-20.48,10.4c-2.41,0-4.03-1.8-4.03-4.07s1.55-4.14,4.03-4.14c2.34,0,4,1.8,4,4.14s-1.66,4.07-4,4.07m6.34-10.4h-2.34v1.33c-1.08-.86-2.48-1.4-4-1.4-3.53,0-6.37,2.84-6.37,6.41s2.88,6.34,6.37,6.34c1.48,0,2.88-.58,4-1.51v2.63c0,2.23-1.22,4.18-3.96,4.18-2.95,0-3.82-2.09-3.82-4.14h-2.34c-.07,3.64,2.27,6.48,6.05,6.48,4.61,0,6.41-3.46,6.41-6.3v-14Zm-15.41,0h-2.34v12.6h2.34v-12.6Zm-1.19-7.85c-.86,0-1.55.68-1.55,1.51s.68,1.55,1.55,1.55,1.51-.68,1.51-1.55-.68-1.51-1.51-1.51m-7.27,7.78c-1.94,0-3.71,1.3-3.71,3.46,0,1.87,1.15,2.77,2.7,3.56,2.34,1.19,2.81,1.4,2.81,2.27s-.86,1.3-1.84,1.3c-1.58,0-2.16-1.01-2.41-1.55l-2.05.9c.61,1.37,1.73,2.81,4.5,2.81,2.02,0,4.14-1.33,4.14-3.6s-1.69-3.02-3.42-3.82c-1.04-.54-2.09-.94-2.09-1.98,0-.65.5-1.26,1.37-1.26.47,0,.94.25,1.19.79l2.12-.79c-.5-1.15-1.37-2.09-3.31-2.09m-10.84,2.27c1.33,0,2.48.61,3.2,1.73l-6.66.14c.65-1.15,1.87-1.87,3.46-1.87m0,8.21c-2.41,0-4.03-1.8-4.03-4.07v-.29l7.38-.07v-1.94l1.91-1.12c-1.15-1.91-3.02-2.99-5.26-2.99-3.53,0-6.37,2.84-6.37,6.41s2.88,6.34,6.37,6.34c2.12,0,4.03-1.08,5.18-2.66l-1.76-1.33c-.72,1.04-1.87,1.73-3.42,1.73m-11.23-1.8c-.65.97-1.91,1.8-3.49,1.8-2.48,0-4.1-1.8-4.1-4.07s1.55-4.14,4.1-4.14c1.58,0,2.84.83,3.49,1.87v4.54Zm2.34-19.69h-2.34v12.06c-1.01-.65-2.2-1.04-3.49-1.04-3.6,0-6.44,2.84-6.44,6.41s2.88,6.34,6.44,6.34c1.26,0,2.48-.43,3.49-1.12v1.04h2.34v-23.69Zm-24.8,11.09v-6.59c0-1.33.97-2.45,2.38-2.45s2.45,1.12,2.45,2.45h2.12c0-2.52-1.98-4.61-4.54-4.61s-4.75,2.09-4.75,4.61v6.59h-1.4v2.05h1.4v10.55h2.34v-10.55h5.26v-2.05h-5.26Zm-12.24,2.2c2.34,0,4,1.8,4,4.14s-1.66,4.07-4,4.07-4.03-1.8-4.03-4.07,1.55-4.14,4.03-4.14m0-2.27c-3.53,0-6.37,2.84-6.37,6.41s2.88,6.34,6.37,6.34,6.34-2.99,6.34-6.34c0-3.56-2.81-6.41-6.34-6.41m-21.92,2.09c1.66,0,3.1.79,3.42,2.92h-6.98c.4-1.8,1.62-2.92,3.56-2.92m.25-2.09c-3.53,0-6.3,2.92-6.3,6.41s2.52,6.34,6.37,6.34c2.12,0,4.03-1.08,5.18-2.66l-1.76-1.33c-.72,1.04-1.87,1.73-3.42,1.73-2.56,0-3.82-1.51-4-3.56h9.4c.5-4.25-2.23-6.91-5.47-6.91m-15.16,10.48c-2.41,0-4.03-1.8-4.03-4.07s1.55-4.14,4.03-4.14c2.34,0,4,1.8,4,4.14s-1.66,4.07-4,4.07m6.34-10.4h-2.34v1.33c-1.08-.86-2.48-1.4-4-1.4-3.53,0-6.37,2.84-6.37,6.41s2.88,6.34,6.37,6.34c1.48,0,2.88-.58,4-1.51v2.63c0,2.23-1.22,4.18-3.96,4.18-2.95,0-3.82-2.09-3.82-4.14h-2.34c-.07,3.64,2.27,6.48,6.05,6.48,4.61,0,6.41-3.46,6.41-6.3v-14Zm-20.52,2.02c1.66,0,3.1.79,3.42,2.92h-6.98c.4-1.8,1.62-2.92,3.56-2.92m.25-2.09c-3.53,0-6.3,2.92-6.3,6.41s2.52,6.34,6.37,6.34c2.12,0,4.03-1.08,5.18-2.66l-1.76-1.33c-.72,1.04-1.87,1.73-3.42,1.73-2.56,0-3.82-1.51-4-3.56h9.4c.5-4.25-2.23-6.91-5.47-6.91m-8.82-11.02h-2.34v23.69h2.34v-23.69Zm-5.58,0h-2.34v23.69h2.34v-23.69Zm-11.2,13.28c2.34,0,4,1.8,4,4.14s-1.66,4.07-4,4.07-4.03-1.8-4.03-4.07,1.55-4.14,4.03-4.14m0-2.27c-3.53,0-6.37,2.84-6.37,6.41s2.88,6.34,6.37,6.34,6.34-2.99,6.34-6.34c0-3.56-2.81-6.41-6.34-6.41m-11.3,0c-3.6,0-6.44,2.84-6.44,6.41s2.88,6.34,6.44,6.34c1.26,0,2.48-.43,3.49-1.12v-2.95c-.65.97-1.91,1.8-3.49,1.8-2.48,0-4.1-1.8-4.1-4.07s1.55-4.14,4.1-4.14c1.58,0,2.84.83,3.49,1.87v-3.1c-1.01-.65-2.2-1.04-3.49-1.04"/>
          <path class="cls-7" d="m448.61,29.83c-1.94,0-3.71,1.3-3.71,3.46,0,1.87,1.15,2.77,2.7,3.56,2.34,1.19,2.81,1.4,2.81,2.27s-.86,1.3-1.84,1.3c-1.58,0-2.16-1.01-2.41-1.55l-2.05.9c.61,1.37,1.73,2.81,4.5,2.81,2.02,0,4.14-1.33,4.14-3.6s-1.69-3.02-3.42-3.82c-1.04-.54-2.09-.94-2.09-1.98,0-.65.5-1.26,1.37-1.26.47,0,.94.25,1.19.79l2.12-.79c-.5-1.15-1.37-2.09-3.31-2.09m-6.48.07h-10.91v12.6h2.34v-10.37h6.23v10.37h2.34v-12.6Zm-18.61,10.44c-1.15,0-2.12-.9-2.12-2.2s.97-2.2,2.12-2.2,2.12.9,2.12,2.2-.97,2.2-2.12,2.2m4.46-10.44h-6.77l-1.08,2.23h5.51v2.23c-.61-.32-1.33-.5-2.12-.5-2.63,0-4.54,1.91-4.54,4.28s1.91,4.28,4.54,4.28c.79,0,1.51-.18,2.12-.5v.58h2.34v-12.6Zm-11.52,0h-19.01v12.6h2.34v-10.37h5.98v10.37h2.34v-10.37h6.01v10.37h2.34v-12.6Zm-28.3,5.51l5.22,7.09h2.81l-6.3-8.6,4.68-4h-3.06l-4.93,4.18v-15.26h-2.34v23.69h2.34v-5.76l1.58-1.33Zm-10.29-5.58c-3.6,0-6.44,2.84-6.44,6.41s2.88,6.34,6.44,6.34c1.26,0,2.48-.43,3.49-1.12v-2.95c-.65.97-1.91,1.8-3.49,1.8-2.48,0-4.1-1.8-4.1-4.07s1.55-4.14,4.1-4.14c1.58,0,2.84.83,3.49,1.87v-3.1c-1.01-.65-2.2-1.04-3.49-1.04m-14.08,2.09c1.66,0,3.1.79,3.42,2.92h-6.98c.4-1.8,1.62-2.92,3.56-2.92m.25-2.09c-3.53,0-6.3,2.92-6.3,6.41s2.52,6.34,6.37,6.34c2.12,0,4.03-1.08,5.18-2.66l-1.76-1.33c-.72,1.04-1.87,1.73-3.42,1.73-2.56,0-3.82-1.51-4-3.56h9.4c.5-4.25-2.23-6.91-5.47-6.91m-14.44,10.48c-2.41,0-4.03-1.8-4.03-4.07s1.55-4.14,4.03-4.14c2.34,0,4,1.8,4,4.14s-1.66,4.07-4,4.07m0-10.48c-1.55,0-2.95.54-4.03,1.44v-12.46h-2.34v23.69h2.34v-1.33c1.12.9,2.52,1.4,4.03,1.4,3.38,0,6.34-2.99,6.34-6.34,0-3.56-2.81-6.41-6.34-6.41m-14.5,2.12v-2.05h-1.66v-5.26h-2.34v5.26h-1.4v2.05h1.4v10.55h2.34v-10.55h1.66Zm-8.28-2.05h-8.03v2.23h5.69v4.36c-.04,2.81-1.33,4.14-3.35,4.14-1.4,0-2.48-.9-2.48-2.45,0-1.33,1.04-2.23,2.56-2.12v-1.94c-2.95-.14-4.82,1.76-4.82,4.18s1.58,4.36,4.39,4.36c1.55,0,2.81-.54,3.71-1.58v1.44h2.34v-12.6Zm-27.74,12.6h.55v-7.93c0-1.27.3-2.15,1.05-2.93.69-.72,1.71-1.13,2.73-1.13s2.04.41,2.73,1.13c.75.77,1.05,1.66,1.05,2.93v7.93h.55v-7.93c0-1.46-.44-2.46-1.21-3.26-.75-.77-1.88-1.3-3.12-1.3-1.71,0-3.18.99-3.81,2.38v-2.04h-.52v12.15Zm-10.02-.17c-3.15,0-5.63-2.62-5.63-5.91s2.49-5.91,5.63-5.91,5.63,2.62,5.63,5.91-2.49,5.91-5.63,5.91m0,.5c3.48,0,6.19-2.87,6.19-6.41s-2.71-6.41-6.19-6.41-6.19,2.87-6.19,6.41,2.71,6.41,6.19,6.41m-10.58-.33h.55v-12.15h-.55v12.15Zm.28-15.19c.47,0,.83-.36.83-.83s-.36-.83-.83-.83-.83.36-.83.83.36.83.83.83m-7.59,4v11.18h1.57v-11.18h2.82v-1.46h-2.82v-4.75h-1.57v4.75h-2.4v1.46h2.4Zm-9.69,10c-1.82,0-3.01-1.13-3.01-2.76s1.19-2.76,3.01-2.76c2.13,0,3.51,1.13,3.51,2.76s-1.35,2.76-3.51,2.76m3.81-10.36c-.88-.88-2.18-1.44-3.67-1.44-1.38,0-2.62.28-3.64.77v1.71c.94-.61,2.21-.97,3.64-.97,1.02,0,1.93.39,2.54.99.5.5.77,1.1.77,2.35v1.05c-.86-.72-2.04-1.16-3.45-1.16-2.65,0-4.58,1.77-4.58,4.28s1.9,4.28,4.58,4.28c1.44,0,2.65-.44,3.51-1.21v.88h1.52v-8.12c0-1.66-.44-2.65-1.21-3.42m-14.33,11.87c1.41,0,2.68-.44,3.73-1.21v-1.96c-.91,1.02-2.24,1.66-3.73,1.66-2.79,0-4.97-2.26-4.97-5.14s2.18-5.14,4.97-5.14c1.49,0,2.82.63,3.73,1.66v-1.96c-1.05-.77-2.32-1.22-3.73-1.22-3.7,0-6.54,2.98-6.54,6.66s2.84,6.65,6.54,6.65m-10.99-15.57c.99,0,1.82-.86,1.82-1.85s-.83-1.82-1.82-1.82-1.85.83-1.85,1.82.86,1.85,1.85,1.85m-1.33,15.24h2.62v-13.2h-2.62v13.2Zm-14.94,0h2.62v-7.57c0-1.41.33-2.13.86-2.62.52-.52,1.24-.83,2.07-.83s1.55.3,2.07.83c.5.5.83,1.22.83,2.62v7.57h2.62v-7.79c0-2.02-.58-3.34-1.52-4.28-.91-.91-2.15-1.46-3.56-1.46s-2.62.53-3.51,1.38v-1.05h-2.49v13.2Zm-9.31.33c1.63,0,3.04-.61,4.03-1.6.88-.88,1.41-2.04,1.41-3.92v-8.01h-2.62v7.9c0,1.24-.28,1.85-.72,2.29-.5.5-1.24.83-2.1.83s-1.55-.3-2.07-.83c-.44-.44-.72-1.08-.72-2.29v-7.9h-2.62v8.01c0,1.88.52,3.04,1.38,3.92.97.99,2.4,1.6,4.03,1.6m-20.43-.33h3.59v-7.84c0-1.19.25-1.74.66-2.15.39-.39.94-.63,1.57-.63s1.19.25,1.57.63c.41.41.66.97.66,2.15v7.84h3.59v-8.15c0-1.82-.44-3.01-1.16-3.89-.94-1.13-2.35-1.85-3.92-1.85-1.71,0-3.18.72-4.11,1.85-.91-1.13-2.26-1.85-3.84-1.85-1.38,0-2.54.55-3.34,1.41v-1.02h-3.34v13.5h3.59v-7.84c0-1.19.25-1.74.66-2.15.39-.39.94-.63,1.57-.63s1.19.25,1.57.63c.41.41.66.97.66,2.15v7.84Zm-31.15-13.5v13.5h3.59v-10.24h4.47v10.24h3.59v-10.24h4.42v10.24h3.59v-13.5h-19.66Zm-9.8,10.52c-2.04,0-3.59-1.6-3.59-3.76s1.55-3.76,3.59-3.76,3.59,1.6,3.59,3.76-1.57,3.76-3.59,3.76m0,3.37c4.14,0,7.29-3.15,7.29-7.12s-3.15-7.12-7.29-7.12-7.29,3.15-7.29,7.12,3.15,7.12,7.29,7.12m-11.93-3.37c-2.21,0-3.87-1.6-3.87-3.76s1.66-3.76,3.87-3.76c1.19,0,2.21.41,2.96,1.13v-3.76c-.97-.47-2.04-.75-3.23-.75-4.14,0-7.29,3.15-7.29,7.12s3.15,7.12,7.29,7.12c1.19,0,2.26-.28,3.23-.75v-3.76c-.75.72-1.77,1.13-2.96,1.13m-19.66,2.98h4.64v-21.48h-4.64v21.48Zm-13.34-2.84c-.83,0-1.41-.58-1.41-1.38s.58-1.38,1.41-1.38,1.41.58,1.41,1.38-.58,1.38-1.41,1.38m0,3.29c2.84,0,4.97-2.04,4.97-4.67s-2.13-4.67-4.97-4.67-4.97,2.04-4.97,4.67,2.13,4.67,4.97,4.67m5.88-10.24v9.8h4.64v-13.81h-14.08v4.01h9.44Zm-19.36,10.24c2.1,0,3.95-.77,5.16-1.99.99-.99,1.55-2.24,1.55-4.17v-8.09h-4.64v7.71c0,1.02-.17,1.44-.5,1.77-.36.36-.91.58-1.57.58s-1.22-.22-1.57-.58c-.33-.33-.5-.74-.5-1.77v-7.71h-4.64v8.09c0,1.93.55,3.18,1.55,4.17,1.19,1.21,3.07,1.99,5.16,1.99m-14.89,0c4.17,0,6.63-2.51,6.63-5,0-2.18-1.41-3.76-4.53-4.59l-.55-.14c-.69-.16-.97-.28-.97-.66s.47-.58,1.05-.58c.77,0,1.6.25,2.49.72l.41.22,1.82-3.78-.44-.22c-1.63-.8-3.48-1.19-5.36-1.19-4.14,0-6.57,2.65-6.57,5.19,0,2.15,1.35,3.59,3.98,4.17l.55.14c1.08.25,1.46.41,1.46.83,0,.47-.47.64-1.1.64-.91,0-1.99-.33-3.15-1.02l-.47-.28-1.79,3.98.55.28c1.66.83,3.56,1.3,5.99,1.3m-14.33-.44h6.9v-14.36h-6.9v14.36Zm3.48-15.66c2.13,0,3.81-1.68,3.81-3.81s-1.68-3.81-3.81-3.81-3.81,1.68-3.81,3.81,1.69,3.81,3.81,3.81m-3.78,1.3h-7.21l-2.4,5.8-2.4-5.8h-7.21l6.02,14.36h7.18l6.02-14.36Z"/>
        </g>
        <g class="cls-26">
          <g class="cls-13">
            <g class="cls-29">
              <line class="cls-12" x1="249.49" y1="213.51" x2="249.49" y2="15.17"/>
            </g>
          </g>
          <g class="cls-13">
            <g class="cls-25">
              <line class="cls-12" x1="15.88" y1="219.76" x2="244.07" y2="219.76"/>
            </g>
          </g>
          <g class="cls-13">
            <g class="cls-24">
              <line class="cls-12" x1="255.41" y1="219.76" x2="483.6" y2="219.76"/>
            </g>
          </g>
          <g class="cls-13">
            <g class="cls-23">
              <line class="cls-12" x1="249.74" y1="845.56" x2="249.74" y2="647.23"/>
            </g>
          </g>
          <g class="cls-13">
            <g class="cls-27">
              <line class="cls-12" x1="15.88" y1="641.28" x2="244.07" y2="641.28"/>
            </g>
          </g>
          <g class="cls-13">
            <g class="cls-28">
              <line class="cls-12" x1="255.41" y1="641.28" x2="483.6" y2="641.28"/>
            </g>
          </g>
        </g>
      </g>
    </g>
  </g>
</svg>